<svg width="145" height="59" viewBox="0 0 145 59" fill="none" xmlns="http://www.w3.org/2000/svg">
<g filter="url(#filter0_d_3_2)">
<mask id="path-1-outside-1_3_2" maskUnits="userSpaceOnUse" x="4.91992" y="0.975586" width="136" height="50" fill="black">
<rect fill="white" x="4.91992" y="0.975586" width="136" height="50"/>
<path d="M123.559 1.97559C125.318 1.97567 126.646 2.61657 127.542 3.89648C128.438 5.17639 128.887 6.83994 128.887 8.8877C128.887 10.9036 128.31 12.9038 127.158 14.8877C126.038 16.8396 124.662 18.4237 123.03 19.6396C122.23 20.2796 121.622 20.5996 121.206 20.5996C120.246 20.5995 119.767 20.12 119.767 19.1602C119.767 18.7762 120.31 18.1679 121.398 17.3359C122.486 16.5039 123.527 15.3201 124.519 13.7842C125.511 12.2162 126.006 10.3915 126.006 8.31152C126.006 7.44777 125.815 6.6638 125.431 5.95996C125.047 5.22402 124.438 4.8565 123.606 4.85645C122.646 4.85645 121.606 5.86396 120.486 7.87988C119.398 9.86388 118.438 12.584 117.606 16.04C116.806 19.496 116.406 23.0483 116.406 26.6963C116.406 30.3121 116.887 32.1201 117.847 32.1201C119.191 32.1198 120.471 30.8717 121.687 28.376C122.199 27.352 122.742 26.3277 123.318 25.3037C123.894 24.2478 124.646 23.368 125.574 22.6641C126.534 21.9281 127.639 21.5596 128.887 21.5596C131.766 21.5599 133.206 24.2802 133.206 29.7197C133.206 30.6797 133.671 31.1602 134.599 31.1602C135.558 31.1601 136.278 31.0798 136.758 30.9199C137.238 30.76 137.526 30.6798 137.622 30.6797C138.582 30.6797 139.062 31.1601 139.062 32.1201C139.062 33.4 137.59 34.04 134.646 34.04C133.271 34.04 132.199 33.7358 131.431 33.1279C130.695 32.5199 130.326 31.464 130.326 29.96C130.326 28.4561 130.198 27.1602 129.942 26.0723C129.686 24.9846 129.334 24.4408 128.887 24.4404C127.543 24.4404 126.262 25.6877 125.046 28.1836C124.534 29.2075 123.99 30.2478 123.414 31.3037C122.838 32.3277 122.07 33.2083 121.11 33.9443C120.182 34.6482 119.094 34.9999 117.847 35C115.755 35 114.423 33.5311 113.851 30.5938C113.329 31.4747 112.485 32.2885 111.316 33.0322C109.205 34.3441 106.421 34.9999 102.965 35C102.005 35 101.524 34.5196 101.524 33.5596C101.525 32.5999 102.005 32.1201 102.965 32.1201C105.588 32.1201 107.684 31.7039 109.252 30.8721C110.82 30.0082 111.604 29.1442 111.604 28.2803C111.604 27.0963 111.22 26.072 110.452 25.208C109.108 23.7362 107.573 23.0001 105.845 23C104.853 23 103.876 23.416 102.916 24.248C102.628 24.5043 101.7 25.4327 100.133 27.0322C98.5968 28.6322 97.316 29.8318 96.292 30.6318C96.2229 30.6876 96.1517 30.7412 96.0811 30.7959C96.5761 30.9902 96.8242 31.4308 96.8242 32.1201C96.8242 32.8241 96.3437 33.3363 95.3838 33.6562C93.656 34.2322 92.2481 34.5195 91.1602 34.5195C90.1042 34.5195 89.2404 34.0718 88.5684 33.1758C87.8964 32.2798 87.4962 31.2881 87.3682 30.2002C87.0162 27.3206 86.4563 25.8803 85.6885 25.8799C85.2725 25.8799 84.792 26.1523 84.248 26.6963L83 27.9443C82.6801 28.2322 82.3123 28.6001 81.8965 29.0479C81.3364 29.648 80.7724 30.1947 80.2061 30.6885C81.0297 30.754 81.4414 31.2309 81.4414 32.1201C81.4414 32.824 80.9618 33.3363 80.002 33.6562C77.3142 34.5522 75.202 34.9999 73.666 35C70.594 35 68.0175 32.6959 65.9375 28.0879C64.7855 29.0159 63.3293 30.0402 61.5693 31.1602C60.664 31.7363 59.9185 32.1965 59.335 32.5439C59.2784 33.3533 59.2184 34.1721 59.1494 35C58.7974 39.64 58.3487 43.1922 57.8047 45.6562C57.1967 48.5359 55.7571 49.9754 53.4854 49.9756C49.3254 49.9756 47.2451 47.192 47.2451 41.624C47.2451 40.088 47.6612 38.6001 48.4932 37.1602C49.3572 35.7202 50.317 35 51.373 35C52.461 35 53.0049 35.4804 53.0049 36.4404C53.0046 36.6643 52.7807 36.9361 52.333 37.2559C50.861 38.2799 50.125 39.7043 50.125 41.5283C50.125 43.3842 50.3489 44.7762 50.7969 45.7041C51.2769 46.6321 52.1734 47.0957 53.4854 47.0957C54.2532 47.0955 54.7814 46.3595 55.0693 44.8877C55.6033 42.3863 56.0499 38.6014 56.4111 33.5332C55.6903 33.4222 55.3301 32.9519 55.3301 32.1201C55.3301 31.5503 55.7524 31.0811 56.5957 30.708C56.6927 29.1373 56.7295 28.1679 56.7012 27.7998C56.0292 28.7598 55.5329 29.368 55.2129 29.624C54.9249 29.848 54.6208 30.0878 54.3008 30.3438C54.0128 30.5677 53.7245 30.7599 53.4365 30.9199C53.1806 31.0479 52.8445 31.2085 52.4287 31.4004C52.0448 31.5603 51.6444 31.6882 51.2285 31.7842C50.2687 32.0081 49.2609 32.1201 48.2051 32.1201C47.7023 32.1201 47.2426 32.033 46.8242 31.8643C46.8326 31.9454 46.8389 32.0306 46.8389 32.1201C46.8388 32.8241 46.3584 33.3363 45.3984 33.6562C42.7105 34.5522 40.438 35 38.582 35C35.6062 34.9999 33.0948 33.7834 31.0469 31.3516C28.9989 28.9196 27.7349 24.9195 27.2549 19.3516L26.1504 19.5918C25.8624 19.6238 25.6861 19.6396 25.6221 19.6396C24.6624 19.6395 24.1827 19.1599 24.1826 18.2002C24.1826 17.4323 24.6623 16.9518 25.6221 16.7598C26.23 16.6318 26.7264 16.5357 27.1104 16.4717C27.0784 16.0237 27.0625 15.3199 27.0625 14.3604C27.0625 10.9044 27.3825 7.25601 28.0225 3.41602C28.1825 2.45602 28.6629 1.97559 29.4629 1.97559C30.4226 1.97571 30.9023 2.44029 30.9023 3.36816C30.9023 3.52813 30.8706 3.79995 30.8066 4.18359C30.2306 7.63959 29.9424 11.0324 29.9424 14.3604V15.9443C34.1344 15.2083 37.1745 14.8398 39.0625 14.8398C40.0225 14.8398 40.5029 15.3203 40.5029 16.2803C40.5028 17.2401 40.0224 17.7197 39.0625 17.7197C37.2066 17.7197 34.2147 18.0883 30.0869 18.8242C30.7589 27.6878 33.5904 32.1198 38.582 32.1201C39.702 32.1201 41.0948 31.8804 42.7588 31.4004C44.2396 30.9732 45.0999 30.7384 45.3389 30.6914C45.0368 30.2913 44.7745 29.8086 44.5566 29.2402C43.5646 26.7122 42.8772 23.5116 42.4932 19.6396C42.4612 19.4477 42.4453 19.1919 42.4453 18.8721C42.4453 18.1041 42.8931 17.7197 43.7891 17.7197C44.717 17.7197 45.2292 18.2002 45.3252 19.1602C45.5492 21.2721 45.9167 23.4802 46.4287 25.7842C46.9727 28.0881 47.5651 29.2402 48.2051 29.2402C50.2849 29.2402 51.9008 28.7121 53.0527 27.6562C54.2047 26.6003 55.4688 24.728 56.8447 22.04C57.2287 21.08 57.7092 20.5996 58.2852 20.5996C59.2451 20.5997 59.7246 21.0801 59.7246 22.04C59.7246 24.2776 59.6632 26.6036 59.5449 29.0186C59.7456 28.8906 59.9579 28.7587 60.1777 28.6162C61.9376 27.4643 63.4256 26.3923 64.6416 25.4004C63.9376 23.0964 63.5859 20.5357 63.5859 17.7197C63.586 13.4638 64.3695 9.78362 65.9375 6.67969C67.5375 3.54382 69.3137 1.97559 71.2656 1.97559C72.0976 1.97559 72.8178 2.23214 73.4258 2.74414C74.0337 3.25612 74.4816 3.89613 74.7695 4.66406C75.3135 6.13602 75.5859 7.73593 75.5859 9.46387C75.5859 11.1919 75.3938 12.9521 75.0098 14.7441C74.6258 16.5041 74.1612 17.992 73.6172 19.208C73.1052 20.4239 72.482 21.5603 71.7461 22.6162C70.6581 24.1842 69.5219 25.4482 68.3379 26.4082C70.0425 30.1646 71.7938 32.0665 73.5918 32.1172C73.5933 31.5105 74.0737 31.0152 75.0322 30.6318C75.5441 30.4398 76.2161 30.0563 77.0479 29.4805C77.9119 28.9045 78.4884 28.4716 78.7764 28.1836C79.0644 27.8955 79.5599 27.3673 80.2637 26.5996C80.9997 25.8316 81.5762 25.2561 81.9922 24.8721C82.4081 24.4561 82.968 24.04 83.6719 23.624C84.4079 23.208 85.0805 23 85.6885 23C86.9363 23.0001 87.8964 23.4479 88.5684 24.3438C89.2404 25.2398 89.6406 26.2323 89.7686 27.3203C89.9477 28.7857 90.181 29.8779 90.4678 30.5977C92.1578 29.9036 93.4921 29.1799 94.4688 28.4238C95.4607 27.6238 96.6764 26.4716 98.1162 24.9678C99.5562 23.4638 100.5 22.5197 100.948 22.1357C102.484 20.7918 104.117 20.1201 105.845 20.1201C106.901 20.1202 108.053 20.3758 109.301 20.8877C110.581 21.3997 111.765 22.3121 112.853 23.624C113.123 23.9506 113.36 24.2931 113.563 24.6514C113.684 21.3514 114.103 18.129 114.822 14.9844C115.718 11.2084 116.951 8.10387 118.519 5.67188C120.119 3.20803 121.799 1.97559 123.559 1.97559ZM17.3438 6.87207C19.0717 6.87207 20.5121 7.3842 21.6641 8.4082C22.8478 9.43207 23.4403 10.6638 23.4404 12.1035C23.4404 13.5435 22.8798 14.8243 21.7598 15.9443C20.64 17.0641 19.872 17.624 19.4561 17.624C18.4961 17.624 18.0156 17.1436 18.0156 16.1836C18.0159 15.7676 18.4319 15.1433 19.2637 14.3115C20.1276 13.4476 20.5596 12.7917 20.5596 12.3438C20.5595 11.5759 20.2563 10.9516 19.6484 10.4717C19.0724 9.99168 18.3196 9.75195 17.3916 9.75195C15.0238 9.75202 12.9918 10.3602 11.2959 11.5762C9.632 12.7602 8.7998 14.2005 8.7998 15.8965C8.79989 17.5923 9.26447 18.92 10.1924 19.8799C11.1523 20.8398 12.2243 21.5759 13.4082 22.0879C14.624 22.5678 15.8398 23.0157 17.0557 23.4316C18.2717 23.8156 19.2801 24.1683 20.0801 24.4883C20.912 24.7763 21.7442 25.1438 22.5762 25.5918C24.2721 26.5198 25.1201 27.7362 25.1201 29.2402C25.12 31.192 23.7122 32.6484 20.8965 33.6084C18.1125 34.5364 13.6002 35 7.36035 35C6.40035 35 5.91992 34.5196 5.91992 33.5596C5.92007 32.5999 6.40049 32.1201 7.36035 32.1201C13.7599 32.1201 18.1596 31.6396 20.5596 30.6797C21.6795 30.2317 22.2402 29.7681 22.2402 29.2881C22.2402 28.8081 21.84 28.3762 21.04 27.9922C20.272 27.6082 18.9595 27.1119 17.1035 26.5039C15.2797 25.896 13.8877 25.3837 12.9277 24.9678C8.25594 23.0158 5.91992 20.0558 5.91992 16.0879C5.91995 13.4959 7.0403 11.3195 9.28027 9.55957C11.5201 7.76782 14.208 6.87212 17.3438 6.87207ZM71.2656 4.85645C70.7216 4.85645 70.0173 5.52807 69.1533 6.87207C67.3614 9.68799 66.4659 13.3039 66.4658 17.7197C66.4658 19.9597 66.7055 21.928 67.1855 23.624C68.2415 22.6321 69.2173 21.3521 70.1133 19.7842C71.8413 16.7762 72.706 13.208 72.7061 9.08008C72.7061 8.15208 72.5773 7.2239 72.3213 6.2959C72.0653 5.33602 71.7136 4.85645 71.2656 4.85645ZM86.2158 11.1924C86.7278 11.1924 87.2558 11.4322 87.7998 11.9121C88.3437 12.36 88.6161 12.8397 88.6162 13.3516C88.6162 13.8315 88.3922 14.2001 87.9443 14.4561C87.5283 14.7121 87.0638 14.8398 86.5518 14.8398C86.0399 14.8397 85.6078 14.6159 85.2559 14.168C84.9359 13.688 84.7764 13.1758 84.7764 12.6318C84.7764 11.672 85.2561 11.1925 86.2158 11.1924Z"/>
</mask>
<path d="M123.559 1.97559C125.318 1.97567 126.646 2.61657 127.542 3.89648C128.438 5.17639 128.887 6.83994 128.887 8.8877C128.887 10.9036 128.31 12.9038 127.158 14.8877C126.038 16.8396 124.662 18.4237 123.03 19.6396C122.23 20.2796 121.622 20.5996 121.206 20.5996C120.246 20.5995 119.767 20.12 119.767 19.1602C119.767 18.7762 120.31 18.1679 121.398 17.3359C122.486 16.5039 123.527 15.3201 124.519 13.7842C125.511 12.2162 126.006 10.3915 126.006 8.31152C126.006 7.44777 125.815 6.6638 125.431 5.95996C125.047 5.22402 124.438 4.8565 123.606 4.85645C122.646 4.85645 121.606 5.86396 120.486 7.87988C119.398 9.86388 118.438 12.584 117.606 16.04C116.806 19.496 116.406 23.0483 116.406 26.6963C116.406 30.3121 116.887 32.1201 117.847 32.1201C119.191 32.1198 120.471 30.8717 121.687 28.376C122.199 27.352 122.742 26.3277 123.318 25.3037C123.894 24.2478 124.646 23.368 125.574 22.6641C126.534 21.9281 127.639 21.5596 128.887 21.5596C131.766 21.5599 133.206 24.2802 133.206 29.7197C133.206 30.6797 133.671 31.1602 134.599 31.1602C135.558 31.1601 136.278 31.0798 136.758 30.9199C137.238 30.76 137.526 30.6798 137.622 30.6797C138.582 30.6797 139.062 31.1601 139.062 32.1201C139.062 33.4 137.59 34.04 134.646 34.04C133.271 34.04 132.199 33.7358 131.431 33.1279C130.695 32.5199 130.326 31.464 130.326 29.96C130.326 28.4561 130.198 27.1602 129.942 26.0723C129.686 24.9846 129.334 24.4408 128.887 24.4404C127.543 24.4404 126.262 25.6877 125.046 28.1836C124.534 29.2075 123.99 30.2478 123.414 31.3037C122.838 32.3277 122.07 33.2083 121.11 33.9443C120.182 34.6482 119.094 34.9999 117.847 35C115.755 35 114.423 33.5311 113.851 30.5938C113.329 31.4747 112.485 32.2885 111.316 33.0322C109.205 34.3441 106.421 34.9999 102.965 35C102.005 35 101.524 34.5196 101.524 33.5596C101.525 32.5999 102.005 32.1201 102.965 32.1201C105.588 32.1201 107.684 31.7039 109.252 30.8721C110.82 30.0082 111.604 29.1442 111.604 28.2803C111.604 27.0963 111.22 26.072 110.452 25.208C109.108 23.7362 107.573 23.0001 105.845 23C104.853 23 103.876 23.416 102.916 24.248C102.628 24.5043 101.7 25.4327 100.133 27.0322C98.5968 28.6322 97.316 29.8318 96.292 30.6318C96.2229 30.6876 96.1517 30.7412 96.0811 30.7959C96.5761 30.9902 96.8242 31.4308 96.8242 32.1201C96.8242 32.8241 96.3437 33.3363 95.3838 33.6562C93.656 34.2322 92.2481 34.5195 91.1602 34.5195C90.1042 34.5195 89.2404 34.0718 88.5684 33.1758C87.8964 32.2798 87.4962 31.2881 87.3682 30.2002C87.0162 27.3206 86.4563 25.8803 85.6885 25.8799C85.2725 25.8799 84.792 26.1523 84.248 26.6963L83 27.9443C82.6801 28.2322 82.3123 28.6001 81.8965 29.0479C81.3364 29.648 80.7724 30.1947 80.2061 30.6885C81.0297 30.754 81.4414 31.2309 81.4414 32.1201C81.4414 32.824 80.9618 33.3363 80.002 33.6562C77.3142 34.5522 75.202 34.9999 73.666 35C70.594 35 68.0175 32.6959 65.9375 28.0879C64.7855 29.0159 63.3293 30.0402 61.5693 31.1602C60.664 31.7363 59.9185 32.1965 59.335 32.5439C59.2784 33.3533 59.2184 34.1721 59.1494 35C58.7974 39.64 58.3487 43.1922 57.8047 45.6562C57.1967 48.5359 55.7571 49.9754 53.4854 49.9756C49.3254 49.9756 47.2451 47.192 47.2451 41.624C47.2451 40.088 47.6612 38.6001 48.4932 37.1602C49.3572 35.7202 50.317 35 51.373 35C52.461 35 53.0049 35.4804 53.0049 36.4404C53.0046 36.6643 52.7807 36.9361 52.333 37.2559C50.861 38.2799 50.125 39.7043 50.125 41.5283C50.125 43.3842 50.3489 44.7762 50.7969 45.7041C51.2769 46.6321 52.1734 47.0957 53.4854 47.0957C54.2532 47.0955 54.7814 46.3595 55.0693 44.8877C55.6033 42.3863 56.0499 38.6014 56.4111 33.5332C55.6903 33.4222 55.3301 32.9519 55.3301 32.1201C55.3301 31.5503 55.7524 31.0811 56.5957 30.708C56.6927 29.1373 56.7295 28.1679 56.7012 27.7998C56.0292 28.7598 55.5329 29.368 55.2129 29.624C54.9249 29.848 54.6208 30.0878 54.3008 30.3438C54.0128 30.5677 53.7245 30.7599 53.4365 30.9199C53.1806 31.0479 52.8445 31.2085 52.4287 31.4004C52.0448 31.5603 51.6444 31.6882 51.2285 31.7842C50.2687 32.0081 49.2609 32.1201 48.2051 32.1201C47.7023 32.1201 47.2426 32.033 46.8242 31.8643C46.8326 31.9454 46.8389 32.0306 46.8389 32.1201C46.8388 32.8241 46.3584 33.3363 45.3984 33.6562C42.7105 34.5522 40.438 35 38.582 35C35.6062 34.9999 33.0948 33.7834 31.0469 31.3516C28.9989 28.9196 27.7349 24.9195 27.2549 19.3516L26.1504 19.5918C25.8624 19.6238 25.6861 19.6396 25.6221 19.6396C24.6624 19.6395 24.1827 19.1599 24.1826 18.2002C24.1826 17.4323 24.6623 16.9518 25.6221 16.7598C26.23 16.6318 26.7264 16.5357 27.1104 16.4717C27.0784 16.0237 27.0625 15.3199 27.0625 14.3604C27.0625 10.9044 27.3825 7.25601 28.0225 3.41602C28.1825 2.45602 28.6629 1.97559 29.4629 1.97559C30.4226 1.97571 30.9023 2.44029 30.9023 3.36816C30.9023 3.52813 30.8706 3.79995 30.8066 4.18359C30.2306 7.63959 29.9424 11.0324 29.9424 14.3604V15.9443C34.1344 15.2083 37.1745 14.8398 39.0625 14.8398C40.0225 14.8398 40.5029 15.3203 40.5029 16.2803C40.5028 17.2401 40.0224 17.7197 39.0625 17.7197C37.2066 17.7197 34.2147 18.0883 30.0869 18.8242C30.7589 27.6878 33.5904 32.1198 38.582 32.1201C39.702 32.1201 41.0948 31.8804 42.7588 31.4004C44.2396 30.9732 45.0999 30.7384 45.3389 30.6914C45.0368 30.2913 44.7745 29.8086 44.5566 29.2402C43.5646 26.7122 42.8772 23.5116 42.4932 19.6396C42.4612 19.4477 42.4453 19.1919 42.4453 18.8721C42.4453 18.1041 42.8931 17.7197 43.7891 17.7197C44.717 17.7197 45.2292 18.2002 45.3252 19.1602C45.5492 21.2721 45.9167 23.4802 46.4287 25.7842C46.9727 28.0881 47.5651 29.2402 48.2051 29.2402C50.2849 29.2402 51.9008 28.7121 53.0527 27.6562C54.2047 26.6003 55.4688 24.728 56.8447 22.04C57.2287 21.08 57.7092 20.5996 58.2852 20.5996C59.2451 20.5997 59.7246 21.0801 59.7246 22.04C59.7246 24.2776 59.6632 26.6036 59.5449 29.0186C59.7456 28.8906 59.9579 28.7587 60.1777 28.6162C61.9376 27.4643 63.4256 26.3923 64.6416 25.4004C63.9376 23.0964 63.5859 20.5357 63.5859 17.7197C63.586 13.4638 64.3695 9.78362 65.9375 6.67969C67.5375 3.54382 69.3137 1.97559 71.2656 1.97559C72.0976 1.97559 72.8178 2.23214 73.4258 2.74414C74.0337 3.25612 74.4816 3.89613 74.7695 4.66406C75.3135 6.13602 75.5859 7.73593 75.5859 9.46387C75.5859 11.1919 75.3938 12.9521 75.0098 14.7441C74.6258 16.5041 74.1612 17.992 73.6172 19.208C73.1052 20.4239 72.482 21.5603 71.7461 22.6162C70.6581 24.1842 69.5219 25.4482 68.3379 26.4082C70.0425 30.1646 71.7938 32.0665 73.5918 32.1172C73.5933 31.5105 74.0737 31.0152 75.0322 30.6318C75.5441 30.4398 76.2161 30.0563 77.0479 29.4805C77.9119 28.9045 78.4884 28.4716 78.7764 28.1836C79.0644 27.8955 79.5599 27.3673 80.2637 26.5996C80.9997 25.8316 81.5762 25.2561 81.9922 24.8721C82.4081 24.4561 82.968 24.04 83.6719 23.624C84.4079 23.208 85.0805 23 85.6885 23C86.9363 23.0001 87.8964 23.4479 88.5684 24.3438C89.2404 25.2398 89.6406 26.2323 89.7686 27.3203C89.9477 28.7857 90.181 29.8779 90.4678 30.5977C92.1578 29.9036 93.4921 29.1799 94.4688 28.4238C95.4607 27.6238 96.6764 26.4716 98.1162 24.9678C99.5562 23.4638 100.5 22.5197 100.948 22.1357C102.484 20.7918 104.117 20.1201 105.845 20.1201C106.901 20.1202 108.053 20.3758 109.301 20.8877C110.581 21.3997 111.765 22.3121 112.853 23.624C113.123 23.9506 113.36 24.2931 113.563 24.6514C113.684 21.3514 114.103 18.129 114.822 14.9844C115.718 11.2084 116.951 8.10387 118.519 5.67188C120.119 3.20803 121.799 1.97559 123.559 1.97559ZM17.3438 6.87207C19.0717 6.87207 20.5121 7.3842 21.6641 8.4082C22.8478 9.43207 23.4403 10.6638 23.4404 12.1035C23.4404 13.5435 22.8798 14.8243 21.7598 15.9443C20.64 17.0641 19.872 17.624 19.4561 17.624C18.4961 17.624 18.0156 17.1436 18.0156 16.1836C18.0159 15.7676 18.4319 15.1433 19.2637 14.3115C20.1276 13.4476 20.5596 12.7917 20.5596 12.3438C20.5595 11.5759 20.2563 10.9516 19.6484 10.4717C19.0724 9.99168 18.3196 9.75195 17.3916 9.75195C15.0238 9.75202 12.9918 10.3602 11.2959 11.5762C9.632 12.7602 8.7998 14.2005 8.7998 15.8965C8.79989 17.5923 9.26447 18.92 10.1924 19.8799C11.1523 20.8398 12.2243 21.5759 13.4082 22.0879C14.624 22.5678 15.8398 23.0157 17.0557 23.4316C18.2717 23.8156 19.2801 24.1683 20.0801 24.4883C20.912 24.7763 21.7442 25.1438 22.5762 25.5918C24.2721 26.5198 25.1201 27.7362 25.1201 29.2402C25.12 31.192 23.7122 32.6484 20.8965 33.6084C18.1125 34.5364 13.6002 35 7.36035 35C6.40035 35 5.91992 34.5196 5.91992 33.5596C5.92007 32.5999 6.40049 32.1201 7.36035 32.1201C13.7599 32.1201 18.1596 31.6396 20.5596 30.6797C21.6795 30.2317 22.2402 29.7681 22.2402 29.2881C22.2402 28.8081 21.84 28.3762 21.04 27.9922C20.272 27.6082 18.9595 27.1119 17.1035 26.5039C15.2797 25.896 13.8877 25.3837 12.9277 24.9678C8.25594 23.0158 5.91992 20.0558 5.91992 16.0879C5.91995 13.4959 7.0403 11.3195 9.28027 9.55957C11.5201 7.76782 14.208 6.87212 17.3438 6.87207ZM71.2656 4.85645C70.7216 4.85645 70.0173 5.52807 69.1533 6.87207C67.3614 9.68799 66.4659 13.3039 66.4658 17.7197C66.4658 19.9597 66.7055 21.928 67.1855 23.624C68.2415 22.6321 69.2173 21.3521 70.1133 19.7842C71.8413 16.7762 72.706 13.208 72.7061 9.08008C72.7061 8.15208 72.5773 7.2239 72.3213 6.2959C72.0653 5.33602 71.7136 4.85645 71.2656 4.85645ZM86.2158 11.1924C86.7278 11.1924 87.2558 11.4322 87.7998 11.9121C88.3437 12.36 88.6161 12.8397 88.6162 13.3516C88.6162 13.8315 88.3922 14.2001 87.9443 14.4561C87.5283 14.7121 87.0638 14.8398 86.5518 14.8398C86.0399 14.8397 85.6078 14.6159 85.2559 14.168C84.9359 13.688 84.7764 13.1758 84.7764 12.6318C84.7764 11.672 85.2561 11.1925 86.2158 11.1924Z" fill="#141414"/>
<path d="M123.559 1.97559L123.559 0.975586H123.559V1.97559ZM127.542 3.89648L128.361 3.32305L128.361 3.32302L127.542 3.89648ZM128.887 8.8877L129.887 8.8877L129.887 8.88767L128.887 8.8877ZM127.158 14.8877L126.293 14.3856L126.291 14.39L127.158 14.8877ZM123.03 19.6396L122.433 18.8378L122.419 18.848L122.406 18.8588L123.03 19.6396ZM121.206 20.5996L121.206 21.5996H121.206V20.5996ZM119.767 19.1602L118.767 19.1602L118.767 19.1602L119.767 19.1602ZM121.398 17.3359L122.006 18.1303L122.006 18.1303L121.398 17.3359ZM124.519 13.7842L125.359 14.3267L125.364 14.3188L124.519 13.7842ZM126.006 8.31152L127.006 8.31152L127.006 8.31144L126.006 8.31152ZM125.431 5.95996L124.544 6.42253L124.548 6.43069L124.553 6.43878L125.431 5.95996ZM123.606 4.85645L123.607 3.85645H123.606V4.85645ZM120.486 7.87988L119.612 7.39423L119.61 7.39905L120.486 7.87988ZM117.606 16.04L116.634 15.806L116.632 15.8145L117.606 16.04ZM116.406 26.6963L115.406 26.6963L115.406 26.6963L116.406 26.6963ZM117.847 32.1201L117.847 33.1201L117.847 33.1201L117.847 32.1201ZM121.687 28.376L120.792 27.9287L120.788 27.938L121.687 28.376ZM123.318 25.3037L124.19 25.794L124.196 25.7826L123.318 25.3037ZM125.574 22.6641L126.179 23.4608L126.183 23.4577L125.574 22.6641ZM128.887 21.5596L128.887 20.5596H128.887V21.5596ZM133.206 29.7197L134.206 29.7197L134.206 29.7197L133.206 29.7197ZM134.599 31.1602L134.599 32.1602L134.599 32.1602L134.599 31.1602ZM136.758 30.9199L137.074 31.8687L137.074 31.8686L136.758 30.9199ZM137.622 30.6797L137.622 29.6797L137.621 29.6797L137.622 30.6797ZM139.062 32.1201L140.062 32.1202V32.1201H139.062ZM134.646 34.04L134.646 35.04L134.646 35.04L134.646 34.04ZM131.431 33.1279L130.794 33.8989L130.802 33.9055L130.81 33.912L131.431 33.1279ZM130.326 29.96L131.326 29.96L131.326 29.96L130.326 29.96ZM129.942 26.0723L130.916 25.8433L130.916 25.8432L129.942 26.0723ZM128.887 24.4404L128.888 23.4404H128.887V24.4404ZM125.046 28.1836L125.94 28.6308L125.945 28.6216L125.046 28.1836ZM123.414 31.3037L124.286 31.794L124.292 31.7826L123.414 31.3037ZM121.11 33.9443L121.715 34.7411L121.719 34.7379L121.11 33.9443ZM117.847 35L117.847 36L117.847 36L117.847 35ZM113.851 30.5938L114.832 30.4025L114.33 27.8236L112.99 30.084L113.851 30.5938ZM111.316 33.0322L111.844 33.8817L111.853 33.8759L111.316 33.0322ZM102.965 35L102.965 36L102.965 36L102.965 35ZM101.524 33.5596L100.524 33.5594V33.5596H101.524ZM102.965 32.1201L102.965 33.1201L102.965 33.1201L102.965 32.1201ZM109.252 30.8721L109.721 31.7554L109.728 31.7517L109.735 31.7479L109.252 30.8721ZM111.604 28.2803L112.604 28.2805V28.2803H111.604ZM110.452 25.208L111.2 24.5436L111.191 24.5337L110.452 25.208ZM105.845 23L105.845 22H105.845V23ZM102.916 24.248L102.261 23.4923L102.252 23.5007L102.916 24.248ZM100.133 27.0322L99.4186 26.3323L99.4114 26.3397L100.133 27.0322ZM96.292 30.6318L95.6763 29.8438L95.6703 29.8486L95.6643 29.8534L96.292 30.6318ZM96.0811 30.7959L95.4693 30.0048L94.0754 31.0828L95.7156 31.7267L96.0811 30.7959ZM96.8242 32.1201L97.8242 32.1202V32.1201H96.8242ZM95.3838 33.6562L95.7 34.6049L95.7 34.6049L95.3838 33.6562ZM91.1602 34.5195L91.1602 35.5195L91.1602 35.5195L91.1602 34.5195ZM88.5684 33.1758L87.7684 33.7758L87.7684 33.7758L88.5684 33.1758ZM87.3682 30.2002L88.3613 30.0833L88.3608 30.0789L87.3682 30.2002ZM85.6885 25.8799L85.689 24.8799H85.6885V25.8799ZM83 27.9443L83.669 28.6876L83.6885 28.67L83.7071 28.6514L83 27.9443ZM81.8965 29.0479L82.6275 29.7302L82.6293 29.7283L81.8965 29.0479ZM80.2061 30.6885L79.5489 29.9348L77.7574 31.4968L80.1267 31.6853L80.2061 30.6885ZM81.4414 32.1201L82.4414 32.1202V32.1201H81.4414ZM80.002 33.6562L80.3182 34.6049L80.3182 34.6049L80.002 33.6562ZM73.666 35L73.666 36L73.6661 36L73.666 35ZM65.9375 28.0879L66.8489 27.6765L66.317 26.4981L65.3102 27.3091L65.9375 28.0879ZM61.5693 31.1602L62.1062 32.0038L62.1062 32.0038L61.5693 31.1602ZM59.335 32.5439L58.8233 31.6847L58.3739 31.9524L58.3374 32.4742L59.335 32.5439ZM59.1494 35L58.1528 34.917L58.1523 34.9244L59.1494 35ZM57.8047 45.6562L56.8282 45.4407L56.8263 45.4497L57.8047 45.6562ZM53.4854 49.9756L53.4854 50.9756L53.4854 50.9756L53.4854 49.9756ZM47.2451 41.624L46.2451 41.624L46.2451 41.624L47.2451 41.624ZM48.4932 37.1602L47.6357 36.6457L47.6314 36.6527L47.6273 36.6599L48.4932 37.1602ZM51.373 35L51.3731 34H51.373V35ZM53.0049 36.4404L54.0049 36.4417V36.4404H53.0049ZM52.333 37.2559L52.9041 38.0768L52.9143 38.0696L52.333 37.2559ZM50.125 41.5283L49.125 41.5283L49.125 41.5283L50.125 41.5283ZM50.7969 45.7041L49.8963 46.1389L49.9023 46.1513L49.9087 46.1635L50.7969 45.7041ZM53.4854 47.0957L53.4854 48.0957L53.4856 48.0957L53.4854 47.0957ZM55.0693 44.8877L54.0914 44.6789L54.0896 44.6873L54.0879 44.6957L55.0693 44.8877ZM56.4111 33.5332L57.4086 33.6043L57.4741 32.6851L56.5633 32.5449L56.4111 33.5332ZM55.3301 32.1201L54.3301 32.1201L54.3301 32.1202L55.3301 32.1201ZM56.5957 30.708L57.0003 31.6225L57.5563 31.3765L57.5938 30.7696L56.5957 30.708ZM56.7012 27.7998L57.6982 27.7231L57.484 24.9377L55.8819 27.2263L56.7012 27.7998ZM55.2129 29.624L55.8269 30.4134L55.8376 30.4049L55.2129 29.624ZM54.3008 30.3438L54.9148 31.1332L54.9255 31.1246L54.3008 30.3438ZM53.4365 30.9199L53.8837 31.8144L53.9032 31.8046L53.9222 31.7941L53.4365 30.9199ZM52.4287 31.4004L52.8133 32.3235L52.8307 32.3162L52.8478 32.3084L52.4287 31.4004ZM51.2285 31.7842L51.0037 30.8098L51.0013 30.8103L51.2285 31.7842ZM48.2051 32.1201L48.2051 33.1201L48.2051 33.1201L48.2051 32.1201ZM46.8242 31.8643L47.1982 30.9368L45.6599 30.3164L45.8295 31.9665L46.8242 31.8643ZM46.8389 32.1201L47.8389 32.1202V32.1201H46.8389ZM45.3984 33.6562L45.7147 34.6049L45.7147 34.6049L45.3984 33.6562ZM38.582 35L38.582 36H38.582V35ZM31.0469 31.3516L30.282 31.9957L30.282 31.9957L31.0469 31.3516ZM27.2549 19.3516L28.2512 19.2657L28.1535 18.1327L27.0423 18.3744L27.2549 19.3516ZM26.1504 19.5918L26.2608 20.5857L26.3123 20.58L26.3629 20.5689L26.1504 19.5918ZM25.6221 19.6396L25.6219 20.6396H25.6221V19.6396ZM24.1826 18.2002L23.1826 18.2002L23.1826 18.2003L24.1826 18.2002ZM25.6221 16.7598L25.8183 17.7404L25.8281 17.7383L25.6221 16.7598ZM27.1104 16.4717L27.2748 17.4581L28.1726 17.3084L28.1078 16.4005L27.1104 16.4717ZM27.0625 14.3604L26.0625 14.3604L26.0625 14.3604L27.0625 14.3604ZM28.0225 3.41602L27.0361 3.25162L27.0361 3.25162L28.0225 3.41602ZM29.4629 1.97559L29.463 0.975586H29.4629V1.97559ZM30.9023 3.36816L31.9023 3.3683V3.36816H30.9023ZM30.8066 4.18359L31.793 4.34799L31.793 4.34797L30.8066 4.18359ZM29.9424 15.9443H28.9424V17.1352L30.1153 16.9293L29.9424 15.9443ZM39.0625 14.8398L39.0625 13.8398L39.0625 13.8398L39.0625 14.8398ZM40.5029 16.2803L41.5029 16.2804V16.2803H40.5029ZM39.0625 17.7197L39.0625 16.7197L39.0625 16.7197L39.0625 17.7197ZM30.0869 18.8242L29.9114 17.8397L29.0214 17.9984L29.0898 18.8998L30.0869 18.8242ZM38.582 32.1201L38.582 33.1201H38.582V32.1201ZM42.7588 31.4004L42.4816 30.4396L42.4816 30.4396L42.7588 31.4004ZM45.3389 30.6914L45.5319 31.6726L47.0997 31.3642L46.137 30.0889L45.3389 30.6914ZM44.5566 29.2402L45.4904 28.8823L45.4875 28.8749L44.5566 29.2402ZM42.4932 19.6396L43.4883 19.541L43.485 19.508L43.4796 19.4754L42.4932 19.6396ZM42.4453 18.8721L41.4453 18.8721L41.4453 18.8721L42.4453 18.8721ZM43.7891 17.7197L43.7891 16.7197H43.7891V17.7197ZM45.3252 19.1602L44.3301 19.2597L44.3308 19.2656L45.3252 19.1602ZM46.4287 25.7842L45.4524 26.0011L45.4555 26.014L46.4287 25.7842ZM48.2051 29.2402L48.2051 30.2402L48.2051 30.2402L48.2051 29.2402ZM53.0527 27.6562L53.7284 28.3935L53.7285 28.3934L53.0527 27.6562ZM56.8447 22.04L57.7349 22.4957L57.756 22.4545L57.7732 22.4114L56.8447 22.04ZM58.2852 20.5996L58.2852 19.5996H58.2852V20.5996ZM59.7246 22.04L60.7246 22.04V22.04H59.7246ZM59.5449 29.0186L58.5461 28.9696L58.4515 30.902L60.0826 29.8617L59.5449 29.0186ZM60.1777 28.6162L60.7216 29.4554L60.7254 29.4529L60.1777 28.6162ZM64.6416 25.4004L65.2737 26.1753L65.7943 25.7506L65.598 25.1082L64.6416 25.4004ZM63.5859 17.7197L62.5859 17.7197V17.7197H63.5859ZM65.9375 6.67969L65.0467 6.2252L65.0449 6.2288L65.9375 6.67969ZM71.2656 1.97559L71.2656 0.975586H71.2656V1.97559ZM73.4258 2.74414L74.07 1.97926L74.0699 1.97923L73.4258 2.74414ZM74.7695 4.66406L75.7075 4.31741L75.7059 4.31294L74.7695 4.66406ZM75.5859 9.46387L76.5859 9.46387L76.5859 9.46386L75.5859 9.46387ZM75.0098 14.7441L75.9868 14.9573L75.9876 14.9537L75.0098 14.7441ZM73.6172 19.208L72.7044 18.7996L72.6999 18.8097L72.6956 18.8199L73.6172 19.208ZM71.7461 22.6162L70.9257 22.0444L70.9245 22.0461L71.7461 22.6162ZM68.3379 26.4082L67.7081 25.6315L67.108 26.118L67.4273 26.8214L68.3379 26.4082ZM73.5918 32.1172L73.5636 33.1168L74.5893 33.1457L74.5918 32.1196L73.5918 32.1172ZM75.0322 30.6318L74.6811 29.6955L74.6709 29.6993L74.6608 29.7034L75.0322 30.6318ZM77.0479 29.4805L76.4932 28.6484L76.4859 28.6533L76.4787 28.6583L77.0479 29.4805ZM78.7764 28.1836L79.4835 28.8907L79.4835 28.8907L78.7764 28.1836ZM80.2637 26.5996L79.5417 25.9077L79.534 25.9157L79.5265 25.9239L80.2637 26.5996ZM81.9922 24.8721L82.6705 25.6069L82.6852 25.5933L82.6993 25.5792L81.9922 24.8721ZM83.6719 23.624L83.1798 22.7535L83.1714 22.7582L83.1631 22.7631L83.6719 23.624ZM85.6885 23L85.6885 22H85.6885V23ZM88.5684 24.3438L89.3684 23.7437L89.3683 23.7437L88.5684 24.3438ZM89.7686 27.3203L88.7754 27.4372L88.7759 27.4416L89.7686 27.3203ZM90.4678 30.5977L89.5388 30.9679L89.9129 31.9066L90.8477 31.5227L90.4678 30.5977ZM94.4688 28.4238L95.0809 29.2146L95.0888 29.2085L95.0965 29.2022L94.4688 28.4238ZM98.1162 24.9678L97.3939 24.2762L97.3939 24.2762L98.1162 24.9678ZM100.948 22.1357L101.599 22.895L101.607 22.8883L100.948 22.1357ZM105.845 20.1201L105.845 19.1201H105.845V20.1201ZM109.301 20.8877L108.921 21.8129L108.929 21.8162L109.301 20.8877ZM112.853 23.624L113.622 22.9857L113.622 22.9857L112.853 23.624ZM113.563 24.6514L112.694 25.1451L114.434 28.2109L114.563 24.6878L113.563 24.6514ZM114.822 14.9844L113.849 14.7535L113.847 14.7613L114.822 14.9844ZM118.519 5.67188L117.68 5.12725L117.678 5.13L118.519 5.67188ZM17.3438 6.87207L17.3437 5.87207L17.3437 5.87207L17.3438 6.87207ZM21.6641 8.4082L20.9996 9.15568L21.0099 9.16455L21.6641 8.4082ZM23.4404 12.1035L24.4404 12.1035L24.4404 12.1034L23.4404 12.1035ZM21.7598 15.9443L22.4669 16.6515L22.4669 16.6514L21.7598 15.9443ZM19.4561 17.624L19.4561 18.624L19.4562 18.624L19.4561 17.624ZM18.0156 16.1836L17.0156 16.1829V16.1836H18.0156ZM19.2637 14.3115L19.9708 15.0186L19.9708 15.0186L19.2637 14.3115ZM20.5596 12.3438L21.5596 12.3437L21.5596 12.3437L20.5596 12.3438ZM19.6484 10.4717L19.0083 11.2399L19.0184 11.2484L19.0288 11.2565L19.6484 10.4717ZM17.3916 9.75195L17.3916 8.75195L17.3916 8.75195L17.3916 9.75195ZM11.2959 11.5762L11.8757 12.391L11.8786 12.3889L11.2959 11.5762ZM8.7998 15.8965L7.7998 15.8965L7.7998 15.8965L8.7998 15.8965ZM10.1924 19.8799L9.47339 20.5749L9.47929 20.581L9.48529 20.587L10.1924 19.8799ZM13.4082 22.0879L13.0113 23.0057L13.0261 23.0121L13.041 23.018L13.4082 22.0879ZM17.0557 23.4316L16.732 24.3778L16.7432 24.3816L16.7545 24.3852L17.0557 23.4316ZM20.0801 24.4883L19.7087 25.4168L19.7306 25.4255L19.753 25.4333L20.0801 24.4883ZM22.5762 25.5918L23.0562 24.7145L23.0503 24.7113L22.5762 25.5918ZM25.1201 29.2402L26.1201 29.2403V29.2402H25.1201ZM20.8965 33.6084L21.2127 34.5571L21.2192 34.5549L20.8965 33.6084ZM7.36035 35L7.36035 36L7.36035 36L7.36035 35ZM5.91992 33.5596L4.91992 33.5594V33.5596H5.91992ZM7.36035 32.1201L7.36035 33.1201L7.36035 33.1201L7.36035 32.1201ZM20.5596 30.6797L20.9309 31.6082L20.931 31.6082L20.5596 30.6797ZM22.2402 29.2881L23.2402 29.2882V29.2881H22.2402ZM21.04 27.9922L20.5928 28.8866L20.6 28.8902L20.6073 28.8937L21.04 27.9922ZM17.1035 26.5039L16.7873 27.4526L16.7922 27.4542L17.1035 26.5039ZM12.9277 24.9678L13.3254 24.0501L13.3133 24.0451L12.9277 24.9678ZM5.91992 16.0879L4.91992 16.0879V16.0879H5.91992ZM9.28027 9.55957L9.89812 10.3459L9.90494 10.3405L9.28027 9.55957ZM71.2656 4.85645L71.2656 3.85645H71.2656V4.85645ZM69.1533 6.87207L68.3121 6.33131L68.3097 6.33521L69.1533 6.87207ZM66.4658 17.7197L65.4658 17.7197V17.7197H66.4658ZM67.1855 23.624L66.2233 23.8963L66.6713 25.4791L67.8702 24.3529L67.1855 23.624ZM70.1133 19.7842L69.2462 19.2861L69.245 19.288L70.1133 19.7842ZM72.7061 9.08008L73.7061 9.08008V9.08008H72.7061ZM72.3213 6.2959L71.355 6.5536L71.3573 6.56183L72.3213 6.2959ZM86.2158 11.1924L86.2158 10.1924L86.2157 10.1924L86.2158 11.1924ZM87.7998 11.9121L87.1382 12.662L87.151 12.6732L87.1641 12.684L87.7998 11.9121ZM88.6162 13.3516L89.6162 13.3516L89.6162 13.3513L88.6162 13.3516ZM87.9443 14.4561L87.4481 13.5879L87.434 13.5959L87.4202 13.6044L87.9443 14.4561ZM86.5518 14.8398L86.5515 15.8398H86.5518V14.8398ZM85.2559 14.168L84.4238 14.7226L84.4454 14.7551L84.4695 14.7858L85.2559 14.168ZM84.7764 12.6318L83.7764 12.6318V12.6318H84.7764ZM123.559 1.97559L123.559 2.97559C125.039 2.97566 126.04 3.49394 126.723 4.46995L127.542 3.89648L128.361 3.32302C127.253 1.73919 125.597 0.975683 123.559 0.975586L123.559 1.97559ZM127.542 3.89648L126.723 4.46991C127.469 5.53677 127.887 6.98236 127.887 8.88772L128.887 8.8877L129.887 8.88767C129.887 6.69753 129.406 4.81601 128.361 3.32305L127.542 3.89648ZM128.887 8.8877H127.887C127.887 10.7039 127.369 12.5326 126.293 14.3856L127.158 14.8877L128.023 15.3898C129.251 13.275 129.887 11.1034 129.887 8.8877H128.887ZM127.158 14.8877L126.291 14.39C125.232 16.2358 123.944 17.7119 122.433 18.8378L123.03 19.6396L123.628 20.4415C125.381 19.1354 126.845 17.4435 128.026 15.3854L127.158 14.8877ZM123.03 19.6396L122.406 18.8588C122.034 19.1564 121.736 19.3548 121.509 19.4747C121.265 19.6026 121.179 19.5996 121.206 19.5996V20.5996V21.5996C121.649 21.5996 122.075 21.4366 122.44 21.2446C122.82 21.0445 123.227 20.7629 123.655 20.4205L123.03 19.6396ZM121.206 20.5996L121.206 19.5996C121.046 19.5996 120.947 19.5793 120.892 19.5609C120.866 19.5521 120.851 19.5441 120.843 19.5397C120.836 19.5355 120.834 19.5331 120.834 19.5327C120.833 19.5323 120.831 19.5299 120.827 19.5229C120.822 19.5156 120.814 19.5004 120.805 19.4738C120.787 19.4187 120.767 19.3198 120.767 19.1601L119.767 19.1602L118.767 19.1602C118.767 19.7941 118.926 20.4533 119.419 20.9469C119.913 21.4405 120.572 21.5996 121.206 21.5996L121.206 20.5996ZM119.767 19.1602H120.767C120.767 19.2931 120.723 19.3522 120.745 19.3108C120.765 19.2758 120.814 19.2006 120.92 19.0827C121.131 18.8463 121.483 18.53 122.006 18.1303L121.398 17.3359L120.791 16.5416C120.226 16.9738 119.762 17.3777 119.429 17.7494C119.263 17.9356 119.108 18.1364 118.992 18.3494C118.878 18.5561 118.767 18.8352 118.767 19.1602H119.767ZM121.398 17.3359L122.006 18.1303C123.21 17.2094 124.324 15.9291 125.359 14.3267L124.519 13.7842L123.679 13.2417C122.729 14.7112 121.763 15.7985 120.791 16.5416L121.398 17.3359ZM124.519 13.7842L125.364 14.3188C126.469 12.5718 127.006 10.5569 127.006 8.31152H126.006H125.006C125.006 10.2262 124.552 11.8606 123.673 13.2495L124.519 13.7842ZM126.006 8.31152L127.006 8.31144C127.006 7.29438 126.779 6.34363 126.309 5.48114L125.431 5.95996L124.553 6.43878C124.85 6.98396 125.006 7.60116 125.006 8.3116L126.006 8.31152ZM125.431 5.95996L126.317 5.4974C126.055 4.99457 125.689 4.57006 125.204 4.27654C124.719 3.98314 124.173 3.85649 123.607 3.85645L123.606 4.85645L123.606 5.85645C123.872 5.85646 124.046 5.91359 124.169 5.98795C124.292 6.06219 124.422 6.18941 124.544 6.42253L125.431 5.95996ZM123.606 4.85645V3.85645C122.761 3.85645 122.024 4.29953 121.411 4.89401C120.791 5.4943 120.195 6.3448 119.612 7.39423L120.486 7.87988L121.36 8.36553C121.897 7.39905 122.382 6.73783 122.802 6.33038C123.229 5.91712 123.492 5.85645 123.606 5.85645V4.85645ZM120.486 7.87988L119.61 7.39905C118.462 9.49181 117.477 12.307 116.634 15.806L117.606 16.04L118.579 16.2741C119.4 12.8611 120.335 10.236 121.363 8.36072L120.486 7.87988ZM117.606 16.04L116.632 15.8145C115.815 19.3465 115.406 22.9745 115.406 26.6963H116.406H117.406C117.406 23.1221 117.798 19.6456 118.581 16.2656L117.606 16.04ZM116.406 26.6963L115.406 26.6963C115.406 28.5262 115.526 29.9878 115.8 31.0208C115.936 31.5336 116.131 32.0237 116.434 32.4042C116.761 32.8144 117.239 33.1201 117.847 33.1201V32.1201V31.1201C117.974 31.1201 118.032 31.1998 117.999 31.158C117.942 31.0866 117.837 30.8986 117.733 30.5074C117.527 29.7325 117.406 28.4821 117.406 26.6963L116.406 26.6963ZM117.847 32.1201L117.847 33.1201C118.857 33.1199 119.75 32.644 120.513 31.8998C121.268 31.1636 121.952 30.1146 122.586 28.8139L121.687 28.376L120.788 27.938C120.205 29.1331 119.641 29.956 119.116 30.4679C118.6 30.9718 118.181 31.1201 117.846 31.1201L117.847 32.1201ZM121.687 28.376L122.581 28.8232C123.086 27.814 123.622 26.804 124.19 25.794L123.318 25.3037L122.447 24.8134C121.863 25.8513 121.311 26.89 120.792 27.9288L121.687 28.376ZM123.318 25.3037L124.196 25.7826C124.707 24.8467 125.367 24.0765 126.179 23.4607L125.574 22.6641L124.97 21.8674C123.926 22.6595 123.082 23.649 122.44 24.8248L123.318 25.3037ZM125.574 22.6641L126.183 23.4577C126.962 22.8599 127.851 22.5596 128.887 22.5596V21.5596V20.5596C127.426 20.5596 126.106 20.9962 124.966 21.8705L125.574 22.6641ZM128.887 21.5596L128.887 22.5596C129.443 22.5596 129.883 22.6888 130.244 22.9159C130.608 23.1453 130.947 23.5105 131.242 24.0677C131.848 25.2118 132.206 27.0556 132.206 29.7197L133.206 29.7197L134.206 29.7197C134.206 26.9444 133.844 24.7082 133.01 23.1321C132.585 22.3293 132.025 21.6744 131.309 21.2236C130.59 20.7706 129.77 20.5597 128.887 20.5596L128.887 21.5596ZM133.206 29.7197H132.206C132.206 30.3458 132.357 31.0004 132.835 31.495C133.32 31.9959 133.971 32.1602 134.599 32.1602V31.1602V30.1602C134.45 30.1602 134.362 30.1406 134.316 30.1248C134.294 30.1172 134.282 30.1107 134.278 30.1079C134.275 30.1064 134.274 30.1055 134.274 30.1052C134.273 30.1049 134.273 30.1049 134.273 30.1049C134.273 30.1048 134.273 30.1044 134.272 30.1032C134.271 30.102 134.269 30.0996 134.267 30.0955C134.262 30.0874 134.254 30.0711 134.245 30.0429C134.226 29.9845 134.206 29.8821 134.206 29.7197H133.206ZM134.599 31.1602L134.599 32.1602C135.588 32.1601 136.438 32.0805 137.074 31.8687L136.758 30.9199L136.442 29.9712C136.118 30.0791 135.529 30.1601 134.599 30.1602L134.599 31.1602ZM136.758 30.9199L137.074 31.8686C137.307 31.7909 137.481 31.7368 137.602 31.7033C137.662 31.6865 137.7 31.6776 137.718 31.6737C137.727 31.6718 137.725 31.6724 137.715 31.6739C137.708 31.6748 137.674 31.6796 137.623 31.6797L137.622 30.6797L137.621 29.6797C137.413 29.6799 137.183 29.7438 137.066 29.7764C136.898 29.823 136.688 29.8891 136.442 29.9712L136.758 30.9199ZM137.622 30.6797V31.6797C137.782 31.6797 137.881 31.7 137.936 31.7184C137.962 31.7273 137.978 31.7353 137.985 31.7398C137.992 31.744 137.995 31.7465 137.995 31.747C137.996 31.7475 137.998 31.75 138.002 31.7571C138.007 31.7645 138.015 31.7798 138.024 31.8064C138.042 31.8616 138.062 31.9606 138.062 32.1201H139.062H140.062C140.062 31.4857 139.903 30.8265 139.409 30.3328C138.916 29.8391 138.256 29.6797 137.622 29.6797V30.6797ZM139.062 32.1201L138.063 32.12C138.062 32.2337 138.035 32.2967 137.993 32.3515C137.94 32.4199 137.821 32.5293 137.56 32.6429C137.015 32.8799 136.077 33.04 134.646 33.04L134.646 34.04L134.646 35.04C136.16 35.04 137.43 34.8801 138.357 34.4771C138.832 34.2708 139.264 33.9802 139.58 33.5686C139.906 33.1435 140.062 32.6465 140.062 32.1202L139.062 32.1201ZM134.646 34.04V33.04C133.407 33.04 132.583 32.7651 132.051 32.3438L131.431 33.1279L130.81 33.912C131.814 34.7066 133.135 35.04 134.646 35.04V34.04ZM131.431 33.1279L132.068 32.357C131.667 32.0261 131.326 31.3367 131.326 29.96H130.326H129.326C129.326 31.5912 129.722 33.0138 130.794 33.8989L131.431 33.1279ZM130.326 29.96L131.326 29.96C131.326 28.4037 131.194 27.027 130.916 25.8433L129.942 26.0723L128.969 26.3013C129.202 27.2934 129.326 28.5085 129.326 29.96L130.326 29.96ZM129.942 26.0723L130.916 25.8432C130.778 25.2565 130.594 24.719 130.326 24.3054C130.055 23.8861 129.587 23.441 128.888 23.4404L128.887 24.4404L128.886 25.4404C128.635 25.4402 128.566 25.2672 128.647 25.3918C128.731 25.5222 128.851 25.8005 128.969 26.3013L129.942 26.0723ZM128.887 24.4404V23.4404C127.877 23.4404 126.984 23.9159 126.22 24.6598C125.465 25.3958 124.781 26.4448 124.147 27.7456L125.046 28.1836L125.945 28.6216C126.527 27.4265 127.091 26.6039 127.616 26.0923C128.133 25.5886 128.552 25.4404 128.887 25.4404V24.4404ZM125.046 28.1836L124.151 27.7364C123.645 28.7493 123.107 29.7789 122.536 30.8249L123.414 31.3037L124.292 31.7826C124.873 30.7166 125.423 29.6658 125.94 28.6308L125.046 28.1836ZM123.414 31.3037L122.542 30.8134C122.035 31.7164 121.358 32.4947 120.502 33.1507L121.11 33.9443L121.719 34.7379C122.783 33.9219 123.642 32.939 124.286 31.794L123.414 31.3037ZM121.11 33.9443L120.506 33.1476C119.765 33.7098 118.893 33.9999 117.847 34L117.847 35L117.847 36C119.296 35.9999 120.6 35.5866 121.715 34.741L121.11 33.9443ZM117.847 35V34C117.065 34 116.485 33.7394 116.02 33.2266C115.524 32.6795 115.1 31.7767 114.832 30.4025L113.851 30.5938L112.869 30.785C113.174 32.3482 113.702 33.6485 114.538 34.5702C115.405 35.5262 116.536 36 117.847 36V35ZM113.851 30.5938L112.99 30.084C112.571 30.7917 111.859 31.5016 110.78 32.1886L111.316 33.0322L111.853 33.8759C113.111 33.0753 114.086 32.1577 114.711 31.1035L113.851 30.5938ZM111.316 33.0322L110.789 32.1828C108.886 33.365 106.304 33.9999 102.965 34L102.965 35L102.965 36C106.537 35.9999 109.523 35.3233 111.844 33.8817L111.316 33.0322ZM102.965 35V34C102.805 34 102.706 33.9797 102.651 33.9613C102.625 33.9524 102.609 33.9444 102.602 33.9399C102.595 33.9357 102.592 33.9332 102.592 33.9327C102.591 33.9322 102.589 33.9297 102.584 33.9226C102.58 33.9152 102.572 33.8999 102.563 33.8733C102.545 33.8181 102.524 33.7191 102.524 33.5596H101.524H100.524C100.524 34.1939 100.684 34.8532 101.178 35.3469C101.671 35.8406 102.33 36 102.965 36V35ZM101.524 33.5596L102.524 33.5597C102.524 33.4002 102.545 33.3014 102.563 33.2464C102.572 33.2199 102.58 33.2047 102.584 33.1973C102.589 33.1902 102.591 33.1878 102.592 33.1874C102.592 33.1869 102.594 33.1844 102.602 33.1802C102.609 33.1757 102.624 33.1677 102.651 33.1588C102.706 33.1404 102.805 33.1201 102.965 33.1201V32.1201V31.1201C102.331 31.1201 101.672 31.2792 101.178 31.7725C100.684 32.266 100.525 32.9251 100.524 33.5594L101.524 33.5596ZM102.965 32.1201L102.965 33.1201C105.68 33.1201 107.956 32.6917 109.721 31.7554L109.252 30.8721L108.783 29.9887C107.412 30.7161 105.497 31.1201 102.965 31.1201L102.965 32.1201ZM109.252 30.8721L109.735 31.7479C110.569 31.2881 111.262 30.7934 111.757 30.2483C112.256 29.6978 112.604 29.037 112.604 28.2805L111.604 28.2803L110.604 28.2801C110.604 28.3875 110.56 28.5906 110.276 28.904C109.986 29.2229 109.503 29.5922 108.769 29.9962L109.252 30.8721ZM111.604 28.2803H112.604C112.604 26.8577 112.134 25.5954 111.2 24.5436L110.452 25.208L109.705 25.8724C110.306 26.5486 110.604 27.3348 110.604 28.2803H111.604ZM110.452 25.208L111.191 24.5337C109.689 22.8895 107.898 22.0001 105.845 22L105.845 23L105.845 24C107.247 24.0001 108.527 24.5829 109.714 25.8823L110.452 25.208ZM105.845 23V22C104.551 22 103.351 22.548 102.261 23.4924L102.916 24.248L103.571 25.0037C104.401 24.2841 105.154 24 105.845 24V23ZM102.916 24.248L102.252 23.5007C101.93 23.7862 100.971 24.7481 99.4186 26.3323L100.133 27.0322L100.847 27.7322C102.43 26.1173 103.325 25.2224 103.58 24.9954L102.916 24.248ZM100.133 27.0322L99.4114 26.3397C97.8891 27.9254 96.646 29.0863 95.6763 29.8438L96.292 30.6318L96.9076 31.4199C97.986 30.5774 99.3045 29.339 100.854 27.7248L100.133 27.0322ZM96.292 30.6318L95.6643 29.8534C95.6057 29.9007 95.5527 29.9404 95.4693 30.0048L96.0811 30.7959L96.6928 31.587C96.7508 31.5421 96.8401 31.4745 96.9197 31.4103L96.292 30.6318ZM96.0811 30.7959L95.7156 31.7267C95.745 31.7383 95.7552 31.7471 95.7562 31.748C95.7567 31.7484 95.76 31.7507 95.7664 31.7621C95.7814 31.7889 95.8242 31.8878 95.8242 32.1201H96.8242H97.8242C97.8242 31.6631 97.7429 31.1971 97.5101 30.7826C97.267 30.3498 96.8963 30.0417 96.4465 29.8651L96.0811 30.7959ZM96.8242 32.1201L95.8242 32.12C95.8242 32.2186 95.8004 32.2779 95.7345 32.3481C95.6472 32.4413 95.455 32.5784 95.0676 32.7076L95.3838 33.6562L95.7 34.6049C96.2725 34.4141 96.8006 34.1351 97.1934 33.7162C97.6078 33.2743 97.8242 32.7256 97.8242 32.1202L96.8242 32.1201ZM95.3838 33.6562L95.0676 32.7076C93.3831 33.269 92.0925 33.5195 91.1602 33.5195L91.1602 34.5195L91.1602 35.5195C92.4036 35.5195 93.9289 35.1953 95.7 34.6049L95.3838 33.6562ZM91.1602 34.5195V33.5195C90.4404 33.5195 89.8648 33.2377 89.3684 32.5758L88.5684 33.1758L87.7684 33.7758C88.6159 34.9059 89.7679 35.5195 91.1602 35.5195V34.5195ZM88.5684 33.1758L89.3684 32.5758C88.7997 31.8176 88.4682 30.9917 88.3613 30.0833L87.3682 30.2002L86.375 30.3171C86.5242 31.5845 86.9931 32.7421 87.7684 33.7758L88.5684 33.1758ZM87.3682 30.2002L88.3608 30.0789C88.1819 28.6152 87.9421 27.4361 87.6163 26.598C87.4542 26.181 87.2459 25.782 86.9607 25.4725C86.661 25.1473 86.2327 24.8802 85.689 24.8799L85.6885 25.8799L85.6879 26.8799C85.5282 26.8798 85.4578 26.7929 85.49 26.8279C85.5367 26.8785 85.6344 27.0196 85.7522 27.3227C85.9863 27.9248 86.2025 28.9056 86.3756 30.3215L87.3682 30.2002ZM85.6885 25.8799V24.8799C84.8565 24.8799 84.1287 25.4014 83.5409 25.9892L84.248 26.6963L84.9552 27.4034C85.1865 27.1721 85.3716 27.0322 85.5094 26.954C85.6467 26.8762 85.7009 26.8799 85.6885 26.8799V25.8799ZM84.248 26.6963L83.5409 25.9892L82.2929 27.2372L83 27.9443L83.7071 28.6514L84.9552 27.4034L84.248 26.6963ZM83 27.9443L82.331 27.2011C81.9819 27.5153 81.5921 27.906 81.1637 28.3674L81.8965 29.0479L82.6293 29.7283C83.0324 29.2942 83.3783 28.9492 83.669 28.6876L83 27.9443ZM81.8965 29.0479L81.1654 28.3655C80.627 28.9424 80.0876 29.465 79.5489 29.9348L80.2061 30.6885L80.8632 31.4422C81.4572 30.9243 82.0457 30.3535 82.6275 29.7302L81.8965 29.0479ZM80.2061 30.6885L80.1267 31.6853C80.2454 31.6948 80.3124 31.7163 80.3445 31.7304C80.36 31.7372 80.3679 31.7425 80.3709 31.7447C80.3737 31.7467 80.3748 31.7478 80.3755 31.7488C80.3764 31.7498 80.3798 31.7539 80.385 31.7635C80.3903 31.7735 80.3983 31.7911 80.4067 31.819C80.4241 31.8765 80.4414 31.9726 80.4414 32.1201H81.4414H82.4414C82.4414 31.5333 82.3061 30.9246 81.8897 30.4421C81.4633 29.948 80.8748 29.7385 80.2854 29.6916L80.2061 30.6885ZM81.4414 32.1201L80.4414 32.12C80.4414 32.2191 80.4174 32.2784 80.3518 32.3485C80.2647 32.4414 80.0729 32.5785 79.6857 32.7076L80.002 33.6562L80.3182 34.6049C80.8908 34.414 81.4187 34.135 81.8114 33.7158C82.2255 33.2738 82.4414 32.7251 82.4414 32.1202L81.4414 32.1201ZM80.002 33.6562L79.6857 32.7076C77.0292 33.5931 75.0392 33.9999 73.666 34L73.666 35L73.6661 36C75.3648 35.9999 77.5991 35.5113 80.3182 34.6049L80.002 33.6562ZM73.666 35V34C71.2042 34 68.8812 32.1787 66.8489 27.6765L65.9375 28.0879L65.0261 28.4993C67.1538 33.2131 69.9838 36 73.666 36V35ZM65.9375 28.0879L65.3102 27.3091C64.1961 28.2066 62.7727 29.2091 61.0325 30.3165L61.5693 31.1602L62.1062 32.0038C63.886 30.8712 65.3749 29.8252 66.5648 28.8666L65.9375 28.0879ZM61.5693 31.1602L61.0325 30.3165C60.1327 30.889 59.396 31.3437 58.8233 31.6847L59.335 32.5439L59.8466 33.4032C60.441 33.0492 61.1952 32.5835 62.1062 32.0038L61.5693 31.1602ZM59.335 32.5439L58.3374 32.4742C58.2809 33.2815 58.2213 34.0954 58.1529 34.917L59.1494 35L60.146 35.083C60.2155 34.2488 60.2758 33.425 60.3325 32.6137L59.335 32.5439ZM59.1494 35L58.1523 34.9244C57.8014 39.5493 57.3569 43.0461 56.8282 45.4407L57.8047 45.6562L58.7812 45.8718C59.3405 43.3384 59.7934 39.7307 60.1465 35.0756L59.1494 35ZM57.8047 45.6562L56.8263 45.4497C56.5454 46.7801 56.0964 47.6541 55.5618 48.1886C55.052 48.6985 54.3896 48.9755 53.4853 48.9756L53.4854 49.9756L53.4854 50.9756C54.8529 50.9755 56.0461 50.5327 56.976 49.6028C57.8812 48.6977 58.456 47.4121 58.7831 45.8628L57.8047 45.6562ZM53.4854 49.9756V48.9756C51.6507 48.9756 50.4193 48.3772 49.6063 47.2892C48.7524 46.1465 48.2451 44.3124 48.2451 41.624L47.2451 41.624L46.2451 41.624C46.2451 44.5036 46.7779 46.8453 48.0042 48.4864C49.2713 50.1822 51.16 50.9756 53.4854 50.9756V49.9756ZM47.2451 41.624H48.2451C48.2451 40.2781 48.6074 38.9614 49.359 37.6604L48.4932 37.1602L47.6273 36.6599C46.715 38.2389 46.2451 39.8979 46.2451 41.624H47.2451ZM48.4932 37.1602L49.3507 37.6747C50.1463 36.3485 50.8422 36 51.373 36V35V34C49.7919 34 48.568 35.0918 47.6357 36.6457L48.4932 37.1602ZM51.373 35L51.373 36C51.7913 36 51.9183 36.0951 51.9351 36.1099C51.9415 36.1155 51.9533 36.1265 51.9674 36.1636C51.9837 36.2067 52.0049 36.2924 52.0049 36.4404H53.0049H54.0049C54.0049 35.7716 53.8097 35.0969 53.2588 34.6106C52.7317 34.1452 52.0427 34 51.3731 34L51.373 35ZM53.0049 36.4404L52.0049 36.4392C52.005 36.3264 52.0335 36.2452 52.0516 36.2052C52.0688 36.1672 52.0804 36.1576 52.0649 36.1763C52.0504 36.1939 52.02 36.2269 51.9658 36.2746C51.9124 36.3217 51.842 36.3776 51.7518 36.4421L52.333 37.2559L52.9143 38.0696C53.1741 37.884 53.4191 37.678 53.6085 37.4481C53.7882 37.23 54.0043 36.8853 54.0049 36.4417L53.0049 36.4404ZM52.333 37.2559L51.7619 36.435C50.0157 37.6498 49.125 39.3838 49.125 41.5283H50.125H51.125C51.125 40.0248 51.7064 38.91 52.9041 38.0768L52.333 37.2559ZM50.125 41.5283L49.125 41.5283C49.125 43.4326 49.3496 45.0064 49.8963 46.1389L50.7969 45.7041L51.6974 45.2694C51.3482 44.5459 51.125 43.3357 51.125 41.5283L50.125 41.5283ZM50.7969 45.7041L49.9087 46.1635C50.6072 47.5139 51.9135 48.0957 53.4854 48.0957V47.0957V46.0957C52.4332 46.0957 51.9466 45.7502 51.6851 45.2447L50.7969 45.7041ZM53.4854 47.0957L53.4856 48.0957C54.2524 48.0955 54.8564 47.7026 55.2698 47.1265C55.655 46.5896 55.895 45.8758 56.0507 45.0797L55.0693 44.8877L54.0879 44.6957C53.9557 45.3714 53.7876 45.7614 53.6448 45.9606C53.5301 46.1204 53.4861 46.0957 53.4851 46.0957L53.4854 47.0957ZM55.0693 44.8877L56.0473 45.0965C56.5963 42.5245 57.0467 38.6829 57.4086 33.6043L56.4111 33.5332L55.4137 33.4621C55.0532 38.52 54.6103 42.2482 54.0914 44.6789L55.0693 44.8877ZM56.4111 33.5332L56.5633 32.5449C56.4749 32.5312 56.4298 32.5115 56.4118 32.5019C56.3971 32.494 56.3952 32.4902 56.3944 32.4892C56.3922 32.4864 56.3301 32.4028 56.3301 32.1201L55.3301 32.1201L54.3301 32.1202C54.3301 32.6692 54.448 33.2367 54.8061 33.7047C55.1776 34.1902 55.7057 34.4364 56.2589 34.5216L56.4111 33.5332ZM55.3301 32.1201H56.3301C56.3301 32.1096 56.325 32.0817 56.391 32.0081C56.4741 31.9155 56.6528 31.7762 57.0003 31.6225L56.5957 30.708L56.1911 29.7935C55.2357 30.2162 54.3301 30.9392 54.3301 32.1201H55.3301ZM56.5957 30.708L57.5938 30.7696C57.6888 29.2307 57.7332 28.1773 57.6982 27.7231L56.7012 27.7998L55.7041 27.8765C55.7258 28.1584 55.6965 29.044 55.5976 30.6464L56.5957 30.708ZM56.7012 27.7998L55.8819 27.2263C55.1985 28.2027 54.7787 28.6908 54.5882 28.8432L55.2129 29.624L55.8376 30.4049C56.2871 30.0453 56.8599 29.3169 57.5204 28.3733L56.7012 27.7998ZM55.2129 29.624L54.5989 28.8347C54.3073 29.0615 53.9996 29.3041 53.6761 29.5629L54.3008 30.3438L54.9255 31.1246C55.2419 30.8715 55.5425 30.6345 55.8268 30.4134L55.2129 29.624ZM54.3008 30.3438L53.6868 29.5544C53.4351 29.7502 53.1895 29.9132 52.9509 30.0458L53.4365 30.9199L53.9222 31.7941C54.2595 31.6067 54.5905 31.3853 54.9147 31.1331L54.3008 30.3438ZM53.4365 30.9199L52.9893 30.0255C52.7458 30.1472 52.4199 30.3031 52.0097 30.4924L52.4287 31.4004L52.8478 32.3084C53.2692 32.1139 53.6153 31.9486 53.8837 31.8144L53.4365 30.9199ZM52.4287 31.4004L52.0441 30.4773C51.7136 30.615 51.3667 30.726 51.0037 30.8098L51.2285 31.7842L51.4534 32.7586C51.922 32.6504 52.376 32.5056 52.8133 32.3235L52.4287 31.4004ZM51.2285 31.7842L51.0013 30.8103C50.121 31.0157 49.1897 31.1201 48.2051 31.1201L48.2051 32.1201L48.2051 33.1201C49.332 33.1201 50.4163 33.0005 51.4557 32.758L51.2285 31.7842ZM48.2051 32.1201V31.1201C47.8202 31.1201 47.4886 31.0539 47.1982 30.9368L46.8242 31.8643L46.4502 32.7917C46.9967 33.0121 47.5844 33.1201 48.2051 33.1201V32.1201ZM46.8242 31.8643L45.8295 31.9665C45.8358 32.0285 45.8389 32.077 45.8389 32.1201H46.8389H47.8389C47.8389 31.9843 47.8293 31.8623 47.819 31.762L46.8242 31.8643ZM46.8389 32.1201L45.8389 32.12C45.8389 32.2186 45.815 32.2779 45.7492 32.3481C45.6618 32.4413 45.4696 32.5784 45.0822 32.7076L45.3984 33.6562L45.7147 34.6049C46.2872 34.4141 46.8152 34.1351 47.2081 33.7162C47.6224 33.2743 47.8388 32.7256 47.8389 32.1202L46.8389 32.1201ZM45.3984 33.6562L45.0822 32.7076C42.4485 33.5855 40.2897 34 38.582 34V35V36C40.5863 36 42.9725 35.519 45.7147 34.6049L45.3984 33.6562ZM38.582 35L38.5821 34C35.9236 33.9999 33.6846 32.9314 31.8118 30.7074L31.0469 31.3516L30.282 31.9957C32.5049 34.6355 35.2888 35.9999 38.582 36L38.582 35ZM31.0469 31.3516L31.8118 30.7074C29.9641 28.5133 28.7253 24.7656 28.2512 19.2657L27.2549 19.3516L26.2586 19.4375C26.7444 25.0734 28.0337 29.3258 30.282 31.9957L31.0469 31.3516ZM27.2549 19.3516L27.0423 18.3744L25.9379 18.6146L26.1504 19.5918L26.3629 20.5689L27.4674 20.3287L27.2549 19.3516ZM26.1504 19.5918L26.04 18.5979C25.8993 18.6135 25.7907 18.6247 25.7122 18.6318C25.6729 18.6353 25.6444 18.6376 25.6251 18.6389C25.6016 18.6404 25.6047 18.6396 25.6221 18.6396V19.6396V20.6396C25.7548 20.6396 25.997 20.615 26.2608 20.5857L26.1504 19.5918ZM25.6221 19.6396L25.6222 18.6396C25.4626 18.6396 25.3637 18.6193 25.3085 18.601C25.282 18.5921 25.2668 18.5841 25.2594 18.5797C25.2524 18.5755 25.25 18.573 25.2496 18.5726C25.2492 18.5722 25.2468 18.5699 25.2425 18.5628C25.2381 18.5555 25.2301 18.5403 25.2213 18.5137C25.2029 18.4587 25.1826 18.3597 25.1826 18.2001L24.1826 18.2002L23.1826 18.2003C23.1827 18.8342 23.3418 19.4933 23.8354 19.9869C24.329 20.4804 24.9881 20.6396 25.6219 20.6396L25.6221 19.6396ZM24.1826 18.2002H25.1826C25.1826 18.0433 25.2226 17.9982 25.2499 17.9708C25.3012 17.9195 25.4507 17.8139 25.8183 17.7403L25.6221 16.7598L25.4259 15.7792C24.8337 15.8977 24.2635 16.1284 23.835 16.5573C23.3825 17.0101 23.1826 17.5892 23.1826 18.2002H24.1826ZM25.6221 16.7598L25.8281 17.7383C26.4293 17.6117 26.9104 17.5188 27.2748 17.4581L27.1104 16.4717L26.9459 15.4853C26.5423 15.5526 26.0307 15.6518 25.4161 15.7812L25.6221 16.7598ZM27.1104 16.4717L28.1078 16.4005C28.0785 15.9904 28.0625 15.3167 28.0625 14.3603L27.0625 14.3604L26.0625 14.3604C26.0625 15.3232 26.0782 16.0571 26.1129 16.5429L27.1104 16.4717ZM27.0625 14.3604H28.0625C28.0625 10.9658 28.3768 7.37275 29.0089 3.58041L28.0225 3.41602L27.0361 3.25162C26.3881 7.13927 26.0625 10.8429 26.0625 14.3604H27.0625ZM28.0225 3.41602L29.0089 3.58041C29.0689 3.22041 29.1684 3.0843 29.2098 3.04291C29.2293 3.02341 29.2774 2.97559 29.4629 2.97559V1.97559V0.975586C28.8484 0.975586 28.2563 1.16798 27.7956 1.62869C27.3567 2.06752 27.1361 2.65162 27.0361 3.25162L28.0225 3.41602ZM29.4629 1.97559L29.4628 2.97559C29.6251 2.97561 29.7273 2.99562 29.7856 3.01442C29.8136 3.02348 29.8299 3.03173 29.8379 3.03636C29.842 3.03872 29.8444 3.04042 29.8455 3.04131C29.8462 3.04177 29.8466 3.0421 29.8468 3.04228C29.847 3.04247 29.8471 3.04257 29.8471 3.04259C29.8471 3.04261 29.8472 3.04263 29.8472 3.04265C29.8472 3.04267 29.8473 3.04276 29.8474 3.04297C29.8477 3.04332 29.8486 3.04449 29.8501 3.04684C29.8529 3.05132 29.8593 3.06286 29.8669 3.08492C29.8828 3.13092 29.9023 3.2195 29.9023 3.36816H30.9023H31.9023C31.9023 2.74142 31.7385 2.08973 31.2379 1.60535C30.7435 1.1269 30.0891 0.975668 29.463 0.975586L29.4629 1.97559ZM30.9023 3.36816L29.9023 3.36803C29.9023 3.43679 29.8842 3.63565 29.8202 4.01922L30.8066 4.18359L31.793 4.34797C31.857 3.96424 31.9023 3.61947 31.9023 3.3683L30.9023 3.36816ZM30.8066 4.18359L29.8202 4.01919C29.2357 7.52664 28.9424 10.9744 28.9424 14.3604H29.9424H30.9424C30.9424 11.0903 31.2256 7.75254 31.793 4.34799L30.8066 4.18359ZM29.9424 14.3604H28.9424V15.9443H29.9424H30.9424V14.3604H29.9424ZM29.9424 15.9443L30.1153 16.9293C34.3031 16.194 37.2688 15.8398 39.0625 15.8398L39.0625 14.8398L39.0625 13.8398C37.0802 13.8398 33.9656 14.2227 29.7695 14.9594L29.9424 15.9443ZM39.0625 14.8398V15.8398C39.2221 15.8398 39.321 15.8602 39.3762 15.8786C39.4028 15.8874 39.4181 15.8954 39.4256 15.8999C39.4327 15.9042 39.4351 15.9067 39.4356 15.9072C39.4361 15.9076 39.4386 15.9101 39.4429 15.9172C39.4473 15.9247 39.4554 15.94 39.4642 15.9666C39.4826 16.0217 39.5029 16.1207 39.5029 16.2803H40.5029H41.5029C41.5029 15.6459 41.3435 14.9866 40.8498 14.493C40.3561 13.9993 39.6969 13.8398 39.0625 13.8398V14.8398ZM40.5029 16.2803L39.5029 16.2802C39.5029 16.4397 39.4826 16.5385 39.4642 16.5935C39.4554 16.62 39.4474 16.6353 39.443 16.6426C39.4387 16.6497 39.4363 16.6521 39.4359 16.6525C39.4354 16.6529 39.433 16.6554 39.4259 16.6597C39.4184 16.6641 39.4031 16.6722 39.3765 16.681C39.3213 16.6994 39.2222 16.7197 39.0625 16.7197V17.7197V18.7197C39.6964 18.7197 40.3556 18.5607 40.8494 18.0674C41.3434 17.5739 41.5029 16.9147 41.5029 16.2804L40.5029 16.2803ZM39.0625 17.7197L39.0625 16.7197C37.1107 16.7197 34.0433 17.1031 29.9114 17.8397L30.0869 18.8242L30.2624 19.8087C34.3862 19.0735 37.3024 18.7197 39.0625 18.7197L39.0625 17.7197ZM30.0869 18.8242L29.0898 18.8998C29.4307 23.3966 30.3256 26.9141 31.8719 29.3343C33.4596 31.8193 35.7234 33.12 38.582 33.1201L38.582 32.1201L38.5821 31.1201C36.449 31.12 34.8013 30.2045 33.5573 28.2575C32.2719 26.2457 31.4151 23.1154 31.0841 18.7486L30.0869 18.8242ZM38.582 32.1201V33.1201C39.8321 33.1201 41.3251 32.8547 43.0359 32.3612L42.7588 31.4004L42.4816 30.4396C40.8645 30.906 39.572 31.1201 38.582 31.1201V32.1201ZM42.7588 31.4004L43.0359 32.3612C44.5413 31.927 45.347 31.709 45.5319 31.6726L45.3389 30.6914L45.1459 29.7102C44.8528 29.7678 43.9379 30.0195 42.4816 30.4396L42.7588 31.4004ZM45.3389 30.6914L46.137 30.0889C45.9 29.775 45.6803 29.3777 45.4904 28.8823L44.5566 29.2402L43.6229 29.5982C43.8688 30.2395 44.1736 30.8075 44.5407 31.2939L45.3389 30.6914ZM44.5566 29.2402L45.4875 28.8749C44.5402 26.4606 43.8668 23.3576 43.4883 19.541L42.4932 19.6396L41.498 19.7383C41.8875 23.6657 42.5891 26.9638 43.6257 29.6055L44.5566 29.2402ZM42.4932 19.6396L43.4796 19.4754C43.4606 19.3612 43.4453 19.1673 43.4453 18.8721L42.4453 18.8721L41.4453 18.8721C41.4453 19.2164 41.4618 19.5342 41.5067 19.8039L42.4932 19.6396ZM42.4453 18.8721H43.4453C43.4453 18.775 43.4597 18.7345 43.4614 18.7303C43.462 18.7287 43.46 18.7341 43.4536 18.7432C43.4472 18.7524 43.4395 18.7607 43.4323 18.7669C43.4014 18.7934 43.4609 18.7197 43.7891 18.7197V17.7197V16.7197C43.2212 16.7197 42.6088 16.8382 42.1301 17.2489C41.622 17.6847 41.4453 18.2904 41.4453 18.8721H42.4453ZM43.7891 17.7197L43.789 18.7197C44.0828 18.7197 44.1676 18.793 44.1851 18.8094C44.2082 18.8311 44.2972 18.9301 44.3302 19.2597L45.3252 19.1602L46.3202 19.0607C46.2572 18.4302 46.0421 17.8091 45.5532 17.3505C45.0585 16.8867 44.4233 16.7197 43.7891 16.7197L43.7891 17.7197ZM45.3252 19.1602L44.3308 19.2656C44.5591 21.4188 44.9332 23.6642 45.4525 26.0011L46.4287 25.7842L47.4049 25.5672C46.9002 23.2963 46.5393 21.1254 46.3196 19.0547L45.3252 19.1602ZM46.4287 25.7842L45.4555 26.014C45.7335 27.1914 46.0396 28.1488 46.3915 28.8334C46.567 29.1748 46.7806 29.5018 47.0511 29.7547C47.3299 30.0153 47.7193 30.2402 48.2051 30.2402V29.2402V28.2402C48.3708 28.2402 48.4462 28.3211 48.417 28.2937C48.3794 28.2586 48.2908 28.1536 48.1703 27.919C47.93 27.4515 47.6679 26.6809 47.4019 25.5544L46.4287 25.7842ZM48.2051 29.2402L48.2051 30.2402C50.4507 30.2402 52.338 29.6678 53.7284 28.3935L53.0527 27.6562L52.3771 26.919C51.4635 27.7564 50.1191 28.2402 48.2051 28.2402L48.2051 29.2402ZM53.0527 27.6562L53.7285 28.3934C55.016 27.2131 56.3456 25.2097 57.7349 22.4957L56.8447 22.04L55.9546 21.5844C54.5919 24.2462 53.3934 25.9874 52.377 26.9191L53.0527 27.6562ZM56.8447 22.04L57.7732 22.4114C57.9386 21.998 58.0923 21.7746 58.2 21.6669C58.2495 21.6175 58.279 21.6027 58.285 21.6C58.2881 21.5986 58.2851 21.5996 58.2852 21.5996V20.5996V19.5996C57.0387 19.5996 56.3231 20.6516 55.9163 21.6686L56.8447 22.04ZM58.2852 20.5996L58.2851 21.5996C58.4446 21.5996 58.5435 21.6199 58.5985 21.6383C58.625 21.6471 58.6402 21.6551 58.6476 21.6595C58.6546 21.6638 58.657 21.6662 58.6574 21.6666C58.6578 21.6671 58.6603 21.6695 58.6646 21.6766C58.669 21.684 58.677 21.6993 58.6859 21.726C58.7043 21.7812 58.7246 21.8803 58.7246 22.04H59.7246H60.7246C60.7246 21.4061 60.5656 20.7469 60.0723 20.2531C59.5788 19.7591 58.9195 19.5996 58.2852 19.5996L58.2852 20.5996ZM59.7246 22.04L58.7246 22.04C58.7246 24.2594 58.6637 26.569 58.5461 28.9696L59.5449 29.0186L60.5437 29.0675C60.6627 26.6382 60.7246 24.2957 60.7246 22.04L59.7246 22.04ZM59.5449 29.0186L60.0826 29.8617C60.2676 29.7437 60.5002 29.5989 60.7216 29.4554L60.1777 28.6162L59.6338 27.7771C59.4157 27.9185 59.2235 28.0375 59.0072 28.1754L59.5449 29.0186ZM60.1777 28.6162L60.7254 29.4529C62.5054 28.2878 64.0234 27.1953 65.2737 26.1753L64.6416 25.4004L64.0095 24.6255C62.8279 25.5894 61.3699 26.6407 59.6301 27.7795L60.1777 28.6162ZM64.6416 25.4004L65.598 25.1082C64.9273 22.9134 64.5859 20.4531 64.5859 17.7197H63.5859H62.5859C62.5859 20.6183 62.9479 23.2794 63.6852 25.6926L64.6416 25.4004ZM63.5859 17.7197L64.5859 17.7197C64.586 13.5859 65.3468 10.0668 66.8301 7.13058L65.9375 6.67969L65.0449 6.2288C63.3922 9.50046 62.586 13.3418 62.5859 17.7197L63.5859 17.7197ZM65.9375 6.67969L66.8283 7.13417C68.3978 4.05803 69.9214 2.97559 71.2656 2.97559V1.97559V0.975586C68.7059 0.975586 66.6772 3.02961 65.0467 6.22521L65.9375 6.67969ZM71.2656 1.97559L71.2656 2.97559C71.8734 2.97559 72.3626 3.15614 72.7816 3.50905L73.4258 2.74414L74.0699 1.97923C73.273 1.30815 72.3218 0.975586 71.2656 0.975586L71.2656 1.97559ZM73.4258 2.74414L72.7816 3.50902C73.2539 3.90676 73.6035 4.40252 73.8332 5.01519L74.7695 4.66406L75.7059 4.31294C75.3597 3.38974 74.8135 2.60548 74.07 1.97926L73.4258 2.74414ZM74.7695 4.66406L73.8315 5.01071C74.3306 6.36118 74.5859 7.84248 74.5859 9.46388L75.5859 9.46387L76.5859 9.46386C76.5859 7.62937 76.2964 5.91086 75.7075 4.31741L74.7695 4.66406ZM75.5859 9.46387H74.5859C74.5859 11.1173 74.4021 12.8073 74.032 14.5346L75.0098 14.7441L75.9876 14.9537C76.3854 13.097 76.5859 11.2665 76.5859 9.46387H75.5859ZM75.0098 14.7441L74.0328 14.531C73.6587 16.2453 73.2126 17.6637 72.7044 18.7996L73.6172 19.208L74.53 19.6164C75.1098 18.3204 75.5928 16.7629 75.9868 14.9573L75.0098 14.7441ZM73.6172 19.208L72.6956 18.8199C72.2099 19.9733 71.6203 21.0478 70.9257 22.0444L71.7461 22.6162L72.5665 23.188C73.3438 22.0727 74.0005 20.8745 74.5388 19.5961L73.6172 19.208ZM71.7461 22.6162L70.9245 22.0461C69.8775 23.5551 68.803 24.7437 67.7081 25.6315L68.3379 26.4082L68.9677 27.185C70.2407 26.1528 71.4387 24.8133 72.5677 23.1863L71.7461 22.6162ZM68.3379 26.4082L67.4273 26.8214C68.3006 28.746 69.2167 30.2677 70.194 31.3295C71.1718 32.3919 72.2955 33.081 73.5636 33.1168L73.5918 32.1172L73.62 31.1176C73.09 31.1026 72.4391 30.8155 71.6656 29.9751C70.8916 29.1342 70.0798 27.8268 69.2485 25.995L68.3379 26.4082ZM73.5918 32.1172L74.5918 32.1196C74.5918 32.1114 74.5844 32.0762 74.671 31.987C74.777 31.8777 74.9959 31.7234 75.4036 31.5603L75.0322 30.6318L74.6608 29.7034C73.615 30.1217 72.5949 30.8578 72.5918 32.1148L73.5918 32.1172ZM75.0322 30.6318L75.3834 31.5682C76.0118 31.3325 76.7642 30.8931 77.617 30.3027L77.0479 29.4805L76.4787 28.6583C75.668 29.2194 75.0765 29.5472 74.6811 29.6955L75.0322 30.6318ZM77.0479 29.4805L77.6026 30.3125C78.4631 29.7388 79.1171 29.2571 79.4835 28.8907L78.7764 28.1836L78.0693 27.4765C77.8597 27.6861 77.3606 28.0701 76.4932 28.6484L77.0479 29.4805ZM78.7764 28.1836L79.4835 28.8907C79.789 28.5852 80.2982 28.0419 81.0008 27.2753L80.2637 26.5996L79.5265 25.9239C78.8217 26.6928 78.3399 27.2059 78.0692 27.4765L78.7764 28.1836ZM80.2637 26.5996L80.9857 27.2915C81.717 26.5284 82.2769 25.9701 82.6705 25.6069L81.9922 24.8721L81.3139 24.1373C80.8754 24.542 80.2824 25.1348 79.5417 25.9077L80.2637 26.5996ZM81.9922 24.8721L82.6993 25.5792C83.038 25.2405 83.5234 24.8733 84.1806 24.4849L83.6719 23.624L83.1631 22.7631C82.4125 23.2067 81.7783 23.6717 81.2851 24.165L81.9922 24.8721ZM83.6719 23.624L84.1639 24.4946C84.8054 24.132 85.3071 24 85.6885 24V23V22C84.8538 22 84.0104 22.284 83.1798 22.7535L83.6719 23.624ZM85.6885 23L85.6884 24C86.6631 24.0001 87.3089 24.3312 87.7684 24.9438L88.5684 24.3438L89.3683 23.7437C88.484 22.5646 87.2095 22.0001 85.6885 22L85.6885 23ZM88.5684 24.3438L87.7684 24.9438C88.3369 25.7019 88.6685 26.5285 88.7754 27.4372L89.7686 27.3203L90.7617 27.2035C90.6126 25.9362 90.1438 24.7776 89.3684 23.7437L88.5684 24.3438ZM89.7686 27.3203L88.7759 27.4416C88.9579 28.9304 89.2033 30.1259 89.5388 30.9679L90.4678 30.5977L91.3967 30.2275C91.1586 29.63 90.9374 28.6409 90.7612 27.199L89.7686 27.3203ZM90.4678 30.5977L90.8477 31.5227C92.5842 30.8095 94.0076 30.0455 95.0809 29.2146L94.4688 28.4238L93.8566 27.6331C92.9766 28.3144 91.7313 28.9977 90.0879 29.6726L90.4678 30.5977ZM94.4688 28.4238L95.0965 29.2022C96.136 28.3639 97.3852 27.1773 98.8385 25.6593L98.1162 24.9678L97.3939 24.2762C95.9675 25.766 94.7853 26.8838 93.841 27.6454L94.4688 28.4238ZM98.1162 24.9678L98.8385 25.6593C100.288 24.1452 101.196 23.2404 101.599 22.895L100.948 22.1357L100.297 21.3765C99.8044 21.7991 98.8241 22.7824 97.3939 24.2762L98.1162 24.9678ZM100.948 22.1357L101.607 22.8883C102.995 21.6735 104.401 21.1201 105.845 21.1201V20.1201V19.1201C103.832 19.1201 101.973 19.91 100.29 21.3832L100.948 22.1357ZM105.845 20.1201L105.845 21.1201C106.74 21.1202 107.762 21.3373 108.921 21.8129L109.301 20.8877L109.68 19.9625C108.344 19.4142 107.061 19.1202 105.845 19.1201L105.845 20.1201ZM109.301 20.8877L108.929 21.8162C110.022 22.2532 111.076 23.0488 112.083 24.2624L112.853 23.624L113.622 22.9857C112.453 21.5754 111.14 20.5463 109.672 19.9592L109.301 20.8877ZM112.853 23.624L112.083 24.2623C112.317 24.5446 112.52 24.8389 112.694 25.1451L113.563 24.6514L114.433 24.1577C114.2 23.7474 113.93 23.3565 113.622 22.9857L112.853 23.624ZM113.563 24.6514L114.563 24.6878C114.681 21.449 115.092 18.2892 115.797 15.2074L114.822 14.9844L113.847 14.7613C113.114 17.9689 112.687 21.2538 112.564 24.6149L113.563 24.6514ZM114.822 14.9844L115.795 15.2153C116.673 11.5144 117.869 8.52403 119.359 6.21375L118.519 5.67188L117.678 5.13C116.032 7.68372 114.763 10.9023 113.849 14.7535L114.822 14.9844ZM118.519 5.67188L119.357 6.21649C120.898 3.84348 122.316 2.97559 123.559 2.97559V1.97559V0.975586C121.281 0.975586 119.339 2.57258 117.68 5.12726L118.519 5.67188ZM17.3438 6.87207V7.87207C18.8587 7.87207 20.0532 8.3143 20.9997 9.15561L21.6641 8.4082L22.3284 7.66079C20.9709 6.45411 19.2848 5.87207 17.3438 5.87207V6.87207ZM21.6641 8.4082L21.0099 9.16455C21.9959 10.0173 22.4403 10.9818 22.4404 12.1036L23.4404 12.1035L24.4404 12.1034C24.4403 10.3457 23.6998 8.84679 22.3182 7.65186L21.6641 8.4082ZM23.4404 12.1035H22.4404C22.4404 13.2504 22.0058 14.2841 21.0527 15.2372L21.7598 15.9443L22.4669 16.6514C23.7537 15.3646 24.4404 13.8366 24.4404 12.1035H23.4404ZM21.7598 15.9443L21.0527 15.2372C20.5087 15.7811 20.0785 16.16 19.7548 16.396C19.5931 16.514 19.4786 16.5809 19.4065 16.615C19.3235 16.6543 19.3514 16.624 19.4559 16.624L19.4561 17.624L19.4562 18.624C19.7687 18.624 20.0486 18.5237 20.2616 18.423C20.4854 18.3171 20.7109 18.1741 20.9331 18.0121C21.3773 17.6882 21.891 17.2273 22.4669 16.6515L21.7598 15.9443ZM19.4561 17.624V16.624C19.2965 16.624 19.1975 16.6037 19.1423 16.5853C19.1158 16.5764 19.1005 16.5684 19.093 16.5639C19.0859 16.5597 19.0834 16.5572 19.0829 16.5567C19.0825 16.5562 19.08 16.5538 19.0757 16.5466C19.0712 16.5392 19.0632 16.5239 19.0543 16.4973C19.0359 16.4421 19.0156 16.3432 19.0156 16.1836H18.0156H17.0156C17.0156 16.818 17.1751 17.4772 17.6687 17.9709C18.1624 18.4646 18.8217 18.624 19.4561 18.624V17.624ZM18.0156 16.1836L19.0156 16.1842C19.0156 16.2764 18.9851 16.2204 19.1599 15.9581C19.3169 15.7226 19.5785 15.4109 19.9708 15.0186L19.2637 14.3115L18.5566 13.6044C18.1171 14.0438 17.7548 14.4602 17.4958 14.8488C17.2546 15.2106 17.016 15.6748 17.0156 16.1829L18.0156 16.1836ZM19.2637 14.3115L19.9708 15.0186C20.4274 14.562 20.803 14.1283 21.0708 13.7217C21.3232 13.3384 21.5596 12.8615 21.5596 12.3438H20.5596H19.5596C19.5596 12.274 19.58 12.349 19.4004 12.6216C19.2363 12.8709 18.9639 13.1971 18.5566 13.6044L19.2637 14.3115ZM20.5596 12.3438L21.5596 12.3437C21.5595 11.2676 21.1144 10.355 20.2681 9.68683L19.6484 10.4717L19.0288 11.2565C19.3982 11.5482 19.5595 11.8842 19.5596 12.3438L20.5596 12.3438ZM19.6484 10.4717L20.2886 9.70346C19.493 9.0404 18.4956 8.75195 17.3916 8.75195V9.75195V10.752C18.1436 10.752 18.6519 10.943 19.0083 11.2399L19.6484 10.4717ZM17.3916 9.75195L17.3916 8.75195C14.844 8.75203 12.6013 9.40976 10.7132 10.7635L11.2959 11.5762L11.8786 12.3889C13.3823 11.3107 15.2036 10.752 17.3916 10.752L17.3916 9.75195ZM11.2959 11.5762L10.7161 10.7614C8.84959 12.0896 7.7998 13.8087 7.7998 15.8965H8.7998H9.7998C9.7998 14.5924 10.4144 13.4307 11.8757 12.391L11.2959 11.5762ZM8.7998 15.8965L7.7998 15.8965C7.7999 17.7787 8.32025 19.382 9.47339 20.5749L10.1924 19.8799L10.9114 19.1849C10.2087 18.458 9.79988 17.4058 9.7998 15.8964L8.7998 15.8965ZM10.1924 19.8799L9.48529 20.587C10.5296 21.6313 11.7055 22.4411 13.0113 23.0057L13.4082 22.0879L13.8051 21.17C12.743 20.7107 11.7751 20.0483 10.8995 19.1728L10.1924 19.8799ZM13.4082 22.0879L13.041 23.018C14.271 23.5036 15.5013 23.9568 16.732 24.3778L17.0557 23.4316L17.3794 22.4855C16.1784 22.0746 14.977 21.6321 13.7754 21.1577L13.4082 22.0879ZM17.0557 23.4316L16.7545 24.3852C17.9566 24.7648 18.9397 25.1091 19.7087 25.4168L20.0801 24.4883L20.4515 23.5598C19.6205 23.2274 18.5868 22.8665 17.3568 22.4781L17.0557 23.4316ZM20.0801 24.4883L19.753 25.4333C20.5311 25.7026 21.3142 26.048 22.1021 26.4723L22.5762 25.5918L23.0503 24.7113C22.1742 24.2396 21.293 23.8499 20.4072 23.5433L20.0801 24.4883ZM22.5762 25.5918L22.0962 26.4691C23.578 27.2799 24.1201 28.2089 24.1201 29.2402H25.1201H26.1201C26.1201 27.2636 24.9663 25.7597 23.0562 24.7145L22.5762 25.5918ZM25.1201 29.2402L24.1201 29.2402C24.1201 29.9461 23.8764 30.5518 23.3452 31.1012C22.791 31.6744 21.8965 32.2109 20.5738 32.6619L20.8965 33.6084L21.2192 34.5549C22.7121 34.0459 23.9294 33.3743 24.7831 32.4913C25.6597 31.5846 26.12 30.4862 26.1201 29.2403L25.1201 29.2402ZM20.8965 33.6084L20.5803 32.6597C17.9596 33.5333 13.5858 34 7.36035 34L7.36035 35L7.36035 36C13.6145 36 18.2654 35.5395 21.2127 34.5571L20.8965 33.6084ZM7.36035 35V34C7.20079 34 7.10181 33.9797 7.04664 33.9613C7.02005 33.9524 7.00476 33.9444 6.9973 33.9399C6.99019 33.9357 6.98773 33.9332 6.98724 33.9327C6.98676 33.9322 6.98427 33.9297 6.98 33.9226C6.97552 33.9152 6.9675 33.8999 6.95863 33.8733C6.94023 33.8181 6.91992 33.7191 6.91992 33.5596H5.91992H4.91992C4.91992 34.1939 5.07936 34.8532 5.57303 35.3469C6.0667 35.8406 6.72598 36 7.36035 36V35ZM5.91992 33.5596L6.91992 33.5597C6.91995 33.4002 6.94026 33.3014 6.95863 33.2464C6.96748 33.2199 6.97547 33.2047 6.97991 33.1973C6.98414 33.1902 6.9866 33.1878 6.98704 33.1874C6.98749 33.1869 6.98993 33.1844 6.99704 33.1802C7.0045 33.1757 7.0198 33.1677 7.04642 33.1588C7.10166 33.1404 7.20071 33.1201 7.36035 33.1201V32.1201V31.1201C6.72636 31.1201 6.0672 31.2792 5.57344 31.7725C5.07956 32.266 4.92002 32.9251 4.91992 33.5594L5.91992 33.5596ZM7.36035 32.1201L7.36035 33.1201C13.7532 33.1201 18.3319 32.6477 20.9309 31.6082L20.5596 30.6797L20.1882 29.7512C17.9872 30.6315 13.7667 31.1201 7.36035 31.1201L7.36035 32.1201ZM20.5596 30.6797L20.931 31.6082C21.5326 31.3675 22.0619 31.0936 22.4575 30.7662C22.8469 30.4439 23.2401 29.9532 23.2402 29.2882L22.2402 29.2881L21.2402 29.2879C21.2403 29.1029 21.3531 29.0841 21.1822 29.2256C21.0174 29.3619 20.7065 29.5439 20.1882 29.7512L20.5596 30.6797ZM22.2402 29.2881H23.2402C23.2402 28.1759 22.3187 27.4967 21.4728 27.0907L21.04 27.9922L20.6073 28.8937C20.9458 29.0562 21.1238 29.1944 21.2065 29.2837C21.2762 29.3589 21.2402 29.3544 21.2402 29.2881H22.2402ZM21.04 27.9922L21.4873 27.0978C20.6478 26.678 19.274 26.1626 17.4148 25.5536L17.1035 26.5039L16.7922 27.4542C18.6451 28.0612 19.8963 28.5383 20.5928 28.8866L21.04 27.9922ZM17.1035 26.5039L17.4197 25.5552C15.6049 24.9503 14.2452 24.4488 13.3253 24.0502L12.9277 24.9678L12.5301 25.8853C13.5301 26.3186 14.9545 26.8417 16.7873 27.4526L17.1035 26.5039ZM12.9277 24.9678L13.3133 24.0451C11.0825 23.113 9.48968 21.973 8.4569 20.6643C7.43581 19.3704 6.91992 17.8597 6.91992 16.0879H5.91992H4.91992C4.91992 18.284 5.57204 20.2372 6.88691 21.9033C8.19008 23.5546 10.1012 24.8706 12.5422 25.8905L12.9277 24.9678ZM5.91992 16.0879L6.91992 16.0879C6.91995 13.836 7.87203 11.9378 9.8981 10.3459L9.28027 9.55957L8.66245 8.77325C6.20858 10.7013 4.91996 13.1558 4.91992 16.0879L5.91992 16.0879ZM9.28027 9.55957L9.90494 10.3405C11.9506 8.70405 14.4125 7.87212 17.3438 7.87207L17.3438 6.87207L17.3437 5.87207C14.0036 5.87212 11.0897 6.83158 8.65561 8.77868L9.28027 9.55957ZM71.2656 4.85645V3.85645C70.5977 3.85645 70.0439 4.25062 69.6392 4.63673C69.205 5.05093 68.7635 5.62927 68.3121 6.33131L69.1533 6.87207L69.9945 7.41283C70.4072 6.77088 70.7498 6.3414 71.0198 6.08378C71.3192 5.79808 71.3895 5.85645 71.2656 5.85645V4.85645ZM69.1533 6.87207L68.3097 6.33521C66.3876 9.35573 65.4659 13.1739 65.4658 17.7197L66.4658 17.7197L67.4658 17.7197C67.4659 13.434 68.3353 10.0202 69.997 7.40893L69.1533 6.87207ZM66.4658 17.7197H65.4658C65.4658 20.0281 65.7125 22.0915 66.2233 23.8963L67.1855 23.624L68.1478 23.3517C67.6986 21.7645 67.4658 19.8914 67.4658 17.7197H66.4658ZM67.1855 23.624L67.8702 24.3529C69.0139 23.2785 70.0479 21.9141 70.9815 20.2803L70.1133 19.7842L69.245 19.288C68.3867 20.79 67.4691 21.9856 66.5009 22.8952L67.1855 23.624ZM70.1133 19.7842L70.9804 20.2823C72.8106 17.0964 73.706 13.3497 73.7061 9.08008L72.7061 9.08008L71.7061 9.08008C71.706 13.0664 70.8719 16.456 69.2462 19.2861L70.1133 19.7842ZM72.7061 9.08008H73.7061C73.7061 8.05839 73.5641 7.04083 73.2853 6.02997L72.3213 6.2959L71.3573 6.56183C71.5904 7.40697 71.7061 8.24576 71.7061 9.08008H72.7061ZM72.3213 6.2959L73.2875 6.03821C73.146 5.50769 72.9544 5.01019 72.6718 4.62483C72.3749 4.21993 71.9071 3.85645 71.2656 3.85645L71.2656 4.85645L71.2656 5.85645C71.1889 5.85645 71.118 5.83322 71.0692 5.80395C71.0283 5.77944 71.0289 5.76652 71.0591 5.8076C71.1283 5.902 71.2406 6.12422 71.3551 6.55359L72.3213 6.2959ZM86.2158 11.1924V12.1924C86.3996 12.1924 86.7016 12.2768 87.1382 12.662L87.7998 11.9121L88.4614 11.1622C87.8101 10.5876 87.056 10.1924 86.2158 10.1924V11.1924ZM87.7998 11.9121L87.1641 12.684C87.5694 13.0178 87.6162 13.2404 87.6162 13.3519L88.6162 13.3516L89.6162 13.3513C89.6159 12.4391 89.1179 11.7022 88.4355 11.1402L87.7998 11.9121ZM88.6162 13.3516H87.6162C87.6162 13.4297 87.6 13.458 87.5938 13.4682C87.5856 13.4818 87.5539 13.5274 87.4481 13.5879L87.9443 14.4561L88.4405 15.3243C89.1719 14.9063 89.6162 14.2216 89.6162 13.3516H88.6162ZM87.9443 14.4561L87.4202 13.6044C87.17 13.7584 86.8886 13.8398 86.5518 13.8398V14.8398V15.8398C87.239 15.8398 87.8866 15.6657 88.4684 15.3077L87.9443 14.4561ZM86.5518 14.8398L86.552 13.8398C86.384 13.8398 86.2287 13.7876 86.0422 13.5501L85.2559 14.168L84.4695 14.7858C84.9868 15.4442 85.6958 15.8397 86.5515 15.8398L86.5518 14.8398ZM85.2559 14.168L86.0879 13.6133C85.8709 13.2877 85.7764 12.9668 85.7764 12.6318H84.7764H83.7764C83.7764 13.3848 84.001 14.0883 84.4238 14.7226L85.2559 14.168ZM84.7764 12.6318L85.7764 12.6319C85.7764 12.4722 85.7967 12.3733 85.815 12.3182C85.8239 12.2917 85.8319 12.2765 85.8363 12.2691C85.8405 12.2621 85.8429 12.2597 85.8433 12.2594C85.8437 12.259 85.8461 12.2565 85.8531 12.2523C85.8604 12.2479 85.8757 12.2399 85.9022 12.2311C85.9573 12.2127 86.0563 12.1924 86.2159 12.1924L86.2158 11.1924L86.2157 10.1924C85.5819 10.1925 84.9227 10.3515 84.4291 10.8451C83.9355 11.3387 83.7764 11.9979 83.7764 12.6318L84.7764 12.6318Z" fill="black" mask="url(#path-1-outside-1_3_2)"/>
</g>
<defs>
<filter id="filter0_d_3_2" x="0.919922" y="0.975586" width="143.143" height="58" filterUnits="userSpaceOnUse" color-interpolation-filters="sRGB">
<feFlood flood-opacity="0" result="BackgroundImageFix"/>
<feColorMatrix in="SourceAlpha" type="matrix" values="0 0 0 0 0 0 0 0 0 0 0 0 0 0 0 0 0 0 127 0" result="hardAlpha"/>
<feOffset dy="4"/>
<feGaussianBlur stdDeviation="2"/>
<feComposite in2="hardAlpha" operator="out"/>
<feColorMatrix type="matrix" values="0 0 0 0 0 0 0 0 0 0 0 0 0 0 0 0 0 0 0.25 0"/>
<feBlend mode="normal" in2="BackgroundImageFix" result="effect1_dropShadow_3_2"/>
<feBlend mode="normal" in="SourceGraphic" in2="effect1_dropShadow_3_2" result="shape"/>
</filter>
</defs>
</svg>
